<svg width="336.816" height="71.681" viewBox="0 0 336.816 71.681" xmlns="http://www.w3.org/2000/svg"><g id="svgGroup" stroke-linecap="round" fill-rule="evenodd" font-size="9pt" stroke="rgba(0,0,0)" stroke-width="0.25mm" fill="#000" style="stroke:#000;stroke-width:0.25mm;fill:#000"><path d="M 261.768 70.704 L 250.439 70.704 Q 250.049 70.704 250.049 70.215 L 250.244 1.514 Q 250.244 1.204 250.49 1.14 A 0.576 0.576 0 0 1 250.635 1.124 L 262.842 1.124 Q 263.232 1.124 263.525 1.514 L 272.656 14.698 L 281.738 1.514 A 1.083 1.083 0 0 1 281.968 1.284 A 0.836 0.836 0 0 1 282.471 1.124 L 294.727 1.124 A 0.72 0.72 0 0 1 294.892 1.141 Q 295.117 1.194 295.157 1.411 A 0.563 0.563 0 0 1 295.166 1.514 L 295.361 70.215 A 0.896 0.896 0 0 1 295.345 70.394 Q 295.282 70.704 294.971 70.704 L 283.643 70.704 Q 283.252 70.704 283.252 70.215 L 283.154 19.19 L 272.656 34.424 L 262.256 19.19 L 262.158 70.215 A 0.896 0.896 0 0 1 262.142 70.394 Q 262.079 70.704 261.768 70.704 Z M 136.914 51.514 L 137.109 1.514 Q 137.109 1.204 137.355 1.14 A 0.576 0.576 0 0 1 137.5 1.124 L 148.73 1.124 Q 149.04 1.124 149.104 1.37 A 0.576 0.576 0 0 1 149.121 1.514 L 149.121 51.514 A 8.764 8.764 0 0 0 149.719 54.789 A 8.125 8.125 0 0 0 151.27 57.252 A 7.332 7.332 0 0 0 153.488 58.951 A 6.774 6.774 0 0 0 156.494 59.62 A 7.164 7.164 0 0 0 159.698 58.912 A 7.227 7.227 0 0 0 161.865 57.252 A 8.216 8.216 0 0 0 164.013 51.619 A 10.496 10.496 0 0 0 164.014 51.514 L 164.014 1.514 Q 164.014 1.204 164.26 1.14 A 0.576 0.576 0 0 1 164.404 1.124 L 175.635 1.124 Q 175.945 1.124 176.009 1.37 A 0.576 0.576 0 0 1 176.025 1.514 L 176.221 51.514 A 20.198 20.198 0 0 1 173.584 61.671 Q 170.898 66.26 166.455 68.97 A 18.673 18.673 0 0 1 156.859 71.677 A 22.253 22.253 0 0 1 156.494 71.68 Q 151.221 71.68 146.729 68.946 A 20.373 20.373 0 0 1 139.575 61.597 A 19.829 19.829 0 0 1 136.914 51.514 Z M 336.426 70.704 L 304.102 70.704 Q 303.711 70.704 303.711 70.215 L 303.809 1.514 Q 303.809 1.204 304.055 1.14 A 0.576 0.576 0 0 1 304.199 1.124 L 336.328 1.124 Q 336.719 1.124 336.719 1.612 L 336.719 12.794 Q 336.719 13.104 336.473 13.168 A 0.576 0.576 0 0 1 336.328 13.184 L 315.82 13.184 L 315.82 28.809 L 336.328 28.809 Q 336.638 28.809 336.702 29.055 A 0.576 0.576 0 0 1 336.719 29.2 L 336.816 40.528 Q 336.816 40.838 336.57 40.902 A 0.576 0.576 0 0 1 336.426 40.919 L 315.82 40.919 L 315.82 58.399 L 336.426 58.399 Q 336.816 58.399 336.816 58.887 L 336.816 70.313 Q 336.816 70.623 336.57 70.687 A 0.576 0.576 0 0 1 336.426 70.704 Z M 205.42 70.704 L 194.141 70.704 A 0.564 0.564 0 0 1 193.959 70.677 Q 193.707 70.591 193.701 70.233 A 1.056 1.056 0 0 1 193.701 70.215 L 193.701 13.184 L 180.713 13.184 Q 180.325 13.184 180.245 12.877 A 0.719 0.719 0 0 1 180.225 12.696 L 180.322 1.514 Q 180.322 1.204 180.568 1.14 A 0.576 0.576 0 0 1 180.713 1.124 L 218.701 1.124 Q 219.224 1.124 219.238 1.494 A 0.546 0.546 0 0 1 219.238 1.514 L 219.238 12.696 A 0.896 0.896 0 0 1 219.222 12.874 Q 219.159 13.184 218.848 13.184 L 205.713 13.184 L 205.811 70.215 A 0.896 0.896 0 0 1 205.794 70.394 Q 205.731 70.704 205.42 70.704 Z M 0 70.215 L 12.402 1.514 Q 12.49 1.165 12.811 1.128 A 0.695 0.695 0 0 1 12.891 1.124 L 27.393 1.124 Q 27.717 1.124 27.84 1.394 A 0.709 0.709 0 0 1 27.881 1.514 L 39.795 70.215 Q 39.835 70.617 39.544 70.688 A 0.591 0.591 0 0 1 39.404 70.704 L 28.32 70.704 A 0.712 0.712 0 0 1 28.11 70.675 Q 27.82 70.585 27.783 70.215 L 26.709 62.891 L 13.086 62.891 L 12.012 70.215 Q 11.963 70.704 11.523 70.704 L 0.391 70.704 Q 0 70.704 0 70.215 Z M 64.355 70.704 L 46.436 70.704 Q 46.045 70.704 46.045 70.215 L 46.24 1.514 Q 46.24 1.204 46.486 1.14 A 0.576 0.576 0 0 1 46.631 1.124 L 65.869 1.124 Q 71.484 1.124 76.074 3.858 A 20.019 20.019 0 0 1 83.154 11.109 A 19.359 19.359 0 0 1 85.742 20.899 Q 85.742 25.196 83.789 28.907 Q 81.836 32.618 79.15 34.913 Q 82.031 37.794 83.643 41.602 A 20.343 20.343 0 0 1 85.254 49.61 Q 85.254 55.421 82.471 60.206 Q 79.639 64.991 74.902 67.847 A 20.027 20.027 0 0 1 64.355 70.704 Z M 91.26 51.612 L 91.357 19.922 A 19.775 19.775 0 0 1 92.487 13.176 A 18.23 18.23 0 0 1 94.043 9.913 A 20.281 20.281 0 0 1 101.172 2.711 A 18.563 18.563 0 0 1 110.938 0.001 A 19.076 19.076 0 0 1 117.483 1.103 A 17.616 17.616 0 0 1 120.752 2.686 A 20.487 20.487 0 0 1 127.808 9.888 A 19.389 19.389 0 0 1 130.469 19.879 A 22.972 22.972 0 0 1 130.469 19.922 L 130.566 51.612 A 19.575 19.575 0 0 1 127.93 61.622 A 20.772 20.772 0 0 1 120.801 68.946 Q 116.357 71.68 110.938 71.68 Q 105.615 71.68 101.123 68.946 A 21.043 21.043 0 0 1 93.97 61.646 Q 91.26 57.081 91.26 51.612 Z M 118.457 51.612 L 118.359 19.922 A 8.685 8.685 0 0 0 117.837 16.864 A 7.803 7.803 0 0 0 116.26 14.307 A 6.853 6.853 0 0 0 111.262 12.018 A 8.818 8.818 0 0 0 110.938 12.012 A 7.096 7.096 0 0 0 105.768 14.154 A 8.881 8.881 0 0 0 105.664 14.258 Q 103.467 16.505 103.467 19.922 L 103.467 51.612 Q 103.467 54.883 105.664 57.252 A 7.554 7.554 0 0 0 107.912 58.949 A 6.861 6.861 0 0 0 110.938 59.62 A 6.75 6.75 0 0 0 115.674 57.698 A 9.303 9.303 0 0 0 116.211 57.154 A 8.885 8.885 0 0 0 117.823 54.708 A 7.699 7.699 0 0 0 118.457 51.612 Z M 20.02 20.411 L 19.58 24.122 L 15.088 52.198 L 24.707 52.198 L 20.605 24.122 L 20.02 20.411 Z M 64.355 40.821 L 58.252 40.821 L 58.154 58.497 L 64.355 58.497 A 8.36 8.36 0 0 0 70.435 55.982 A 10.471 10.471 0 0 0 70.557 55.86 A 8.895 8.895 0 0 0 72.684 52.485 A 8.846 8.846 0 0 0 73.145 49.61 A 8.446 8.446 0 0 0 70.637 43.49 A 10.413 10.413 0 0 0 70.557 43.409 Q 67.969 40.821 64.355 40.821 Z M 65.869 12.989 L 58.252 12.989 L 58.252 28.712 L 65.869 28.712 A 7.901 7.901 0 0 0 68.639 28.244 A 6.944 6.944 0 0 0 71.484 26.246 A 9.298 9.298 0 0 0 72.944 24.029 A 7.408 7.408 0 0 0 73.633 20.899 A 7.71 7.71 0 0 0 71.338 15.357 A 7.836 7.836 0 0 0 68.823 13.581 A 7.353 7.353 0 0 0 65.869 12.989 Z" vector-effect="non-scaling-stroke"/></g></svg>