<svg class="svg-icon" style="width: 1em; height: 1em;vertical-align: middle;fill: currentColor;overflow: hidden;" viewBox="0 0 1024 1024" version="1.1" xmlns="http://www.w3.org/2000/svg"><path d="M788.2925 383.952c-27.42-43.298-77.522-68.032-130.012-60.682V148c0-81.608-65.622-148-146.282-148-80.66 0-146.28 66.392-146.28 148L384.0005 336l-37.358-157.7C317.1565 101.686 231.7005 64.22 156.4185 94.416 81.4705 124.476 44.8585 209.926 74.0165 285.7l111.514 289.854c-61.114 49.912-87.988 115.618-49.466 184.436l109.706 195.998C269.2505 997.94 313.4605 1024 361.1505 1024h411.404c61.488 0 115.116-42.88 129.11-103.594l54.854-237.998a135.602 135.602 0 0 0 3.458-30.406L960.0005 512c0-89.912-86.526-154.686-171.708-128.048zM863.9745 652c0 2.976-0.338 5.954-1.004 8.846l-54.854 238.002c-3.956 17.164-18.58 29.152-35.564 29.152H361.1505c-12.972 0-25.084-7.242-31.61-18.898l-109.708-196c-9.114-16.282-5.238-37.336 9.016-48.976l53.294-43.528a32 32 0 0 0 9.624-36.278l-128.18-333.098C138.4525 185.912 232.7405 149.674 257.0205 212.778l119.568 310.714A32 32 0 0 0 406.4545 544h23.264c17.674 0 32-14.326 32-32V148c0-68.75 100.562-68.86 100.562 0v364c0 17.674 14.326 32 32 32h13.712c17.674 0 32-14.326 32-32v-56c0-50.244 73.134-50.318 73.134 0v56c0 17.674 14.326 32 32 32h13.712c17.674 0 32-14.326 32-32 0-50.24 73.134-50.32 73.134 0v140z" fill="white" /></svg>