<svg width="430" height="590" viewBox="0 0 430 590" fill="none" xmlns="http://www.w3.org/2000/svg">
<path fill-rule="evenodd" clip-rule="evenodd" d="M318.419 67C300.946 27.5344 261.438 0 215.5 0C169.562 0 130.054 27.5344 112.581 67H61C27.3106 67 0 94.3106 0 128V529C0 562.689 27.3106 590 61 590H369C402.689 590 430 562.689 430 529V128C430 94.3106 402.689 67 369 67H318.419ZM260 112.5C260 137.077 240.077 157 215.5 157C190.923 157 171 137.077 171 112.5C171 87.9233 190.923 68 215.5 68C240.077 68 260 87.9233 260 112.5ZM59.4065 301.691L100.431 342.716L100.873 343.158C108.758 351.043 121.542 351.043 129.426 343.158L213.18 259.404C220.991 251.593 220.991 238.93 213.18 231.12C205.37 223.309 192.707 223.309 184.896 231.12L115.15 300.866L87.6907 273.407C79.8802 265.596 67.2169 265.596 59.4064 273.407C51.596 281.217 51.596 293.881 59.4065 301.691ZM81 466C94.8071 466 106 454.807 106 441C106 427.193 94.8071 416 81 416C67.1929 416 56 427.193 56 441C56 454.807 67.1929 466 81 466ZM213 329C213 317.954 221.954 309 233 309H354C365.046 309 374 317.954 374 329C374 340.046 365.046 349 354 349H233C221.954 349 213 340.046 213 329ZM139 441C139 429.954 147.954 421 159 421H354C365.046 421 374 429.954 374 441C374 452.046 365.046 461 354 461H159C147.954 461 139 452.046 139 441Z" fill="white"/>
</svg>
