<svg id="Ebene_1" data-name="Ebene 1" xmlns="http://www.w3.org/2000/svg" viewBox="0 0 567.23 463.77"><path d="M236.37,326.22l16.76,90.65-3.95,14.63s-12.62-.84-17.28,10.12l-.38,7.73s13,4.87,31.48,2.85l10.8-22.7-6.94-129.19-28.56-9.38Z" transform="translate(-19.14 -76.65)" fill="gray"/><path d="M376.41,296.47s12.94,57.95,42,91.06a7.91,7.91,0,0,1,1.94,5.1l.07,4.29a7.93,7.93,0,0,1-1.22,4.4l-22.15,35.44s-18.65,7-22.12,12.78a20.4,20.4,0,0,1-1.13,1.77c-.31.4-.68.91-1.05,1.49a3.15,3.15,0,0,0,2.28,4.8c7.38.91,23.76,2.24,34.27-2.06l2.12-8.26a24.25,24.25,0,0,1,5.24-9.92c9.85-11.25,35.54-41.25,35.38-47.87a37.84,37.84,0,0,0-4.68-13.35,30.78,30.78,0,0,1-3.92-19.2l3-25.2-25.38-45Z" transform="translate(-19.14 -76.65)" fill="gray"/><path d="M112.64,106.23l2.68-12.55a28.85,28.85,0,0,1,1-3.56l1.24-3.57a34,34,0,0,0,1.73-8l.11-1.15a.77.77,0,0,1,1.38-.41l7,9a20.83,20.83,0,0,1,2.78,4.73l8,18.85Z" transform="translate(-19.14 -76.65)" fill="#a5a5a5"/><path d="M518,398.88c-4,18.55-11.33,42.46-13.36,49a5.12,5.12,0,0,1-2,2.68l-1.58,1a4.92,4.92,0,0,0-1.93,2.41l-4.46,11.85a5.05,5.05,0,0,1-3.19,3,43.78,43.78,0,0,1-31.65-2.42,4.87,4.87,0,0,1-2.67-3.54c-.45-3.07,1.5-6.39,1.5-6.39,2.92-7.84,13.26-10.05,18.37-10.64a5,5,0,0,0,4.05-3.22,251.52,251.52,0,0,0,12.68-47.5,5,5,0,0,0-2-4.83c-27.85-20.65-52.57-52-67.3-72.82-8.79-12.37-14-21-14.21-21.36h0c-2.32.48-4.62.95-6.94,1.37-1.17.23-2.32.43-3.49.65-64.3,11.54-127.89,7.1-144.75,5.58a5,5,0,0,0-5.06,3c-.09.28-.18.56-.26.86l-21.78,94.29a4.83,4.83,0,0,0-.06,1.93l2.51,15a4.72,4.72,0,0,1-.26,2.65c-1.69,4.18-8.06,11.54-10.19,13.93a5.39,5.39,0,0,0-1,1.82,66.82,66.82,0,0,1-6.72,14.64,5,5,0,0,1-3.3,2.3c-10.39,2-22.27-.67-28.68-2.54a5,5,0,0,1-2.8-7.49c3.39-5.37,10.49-9.25,13.59-10.75a5,5,0,0,0,2.27-2.27l11.86-23.81a5,5,0,0,0,.52-2.19c.08-27.15-5.72-83.61-6.81-94.12a5.13,5.13,0,0,0-1.4-3c-1-1-2.19-2.2-3.58-3.57-9.34-9.17-26.52-25.29-26.52-25.29l-6.72-5.72-12.17-10.37c-1.22,0-4.08-1.56-4.08-1.56s-2,1.23-2.16,1.32l-1.69-7.59-2.17,3.36s-17.61-15.83-41.19-58.34l-.45-.81L86,189.93l-.65,10.75s-7.73-8.11-10.59-16.19A68.34,68.34,0,0,0,70.13,174L64,162.89s-2.38-2-6.06-5.33c-3.47-3.16-8.13-7.52-13-12.5-11.47-11.66-24.16-26.63-25.79-37.18a10.18,10.18,0,0,1,.2-1.6,15.46,15.46,0,0,1,.54-2.17,10,10,0,0,1,.41-1.15,16.87,16.87,0,0,1,2.63-4.41c.17-.18.34-.39.53-.57a75.15,75.15,0,0,1,7-6.43A20.12,20.12,0,0,1,37.36,89l.2,0a5.56,5.56,0,0,1,3.51.65c1.08.62,2.69,1.53,4.77,2.64,5.52,3,18,6.43,28.88,10.87,0,0,58.67-15.53,75.65,27.91,0,0,20.46,19.7,33.22,19l5,.86s-3.59,5.08-8.92,6.4a124.51,124.51,0,0,0,14.82,2.71l8,1,25.85,3.1a5.13,5.13,0,0,0,1.95-.15,75.09,75.09,0,0,1,22.4-3c1.76,0,3.45.17,5,.36h0c11.55,1.37,18.4,5.88,20.73,7.65a4.71,4.71,0,0,0,2.22,1c77.75,12.85,117.17,6.73,117.17,6.73a92.43,92.43,0,0,1,38.34.42c23.73,5.37,40.61,19.36,49.73,28.81A50,50,0,0,1,497.18,224c21.35,60.62,6.7,111.38,3.71,120.51a4.91,4.91,0,0,0,0,3,98.15,98.15,0,0,0,12.08,25.43A34,34,0,0,1,518,398.88Z" transform="translate(-19.14 -76.65)" fill="#ccc"/><polygon points="123.6 19.15 119.78 28.11 112.9 37.86 113.54 38.16 117.13 45.05 122.14 48.81 122.24 48.89 127.24 44.76 132.08 33.84 128.42 10.99 123.6 19.15" fill="#f6f6f6"/><path d="M146.41,79.69h0l-5.79,10.9A32.88,32.88,0,0,1,137,96l-9.57,11.69.5,5,.35.15,4.8,2.56,4.8-8.9c.44-.81.84-1.64,1.21-2.48L142,97.55a34.76,34.76,0,0,1,1.72-3.39l3.92-6.76,1.12,10.07a18.73,18.73,0,0,1-.39,6.42l-.92,3.91a18.93,18.93,0,0,1-4.22,8.2h0a18.8,18.8,0,0,1-5.42,4.25l-1.79.94.28.51,5,3.76,8.93,6.72,2-5a47.79,47.79,0,0,0,3.51-17L156,98.7a9.49,9.49,0,0,0-.44-3L151.21,82A3.67,3.67,0,0,0,146.41,79.69Z" transform="translate(-19.14 -76.65)" fill="#a5a5a5"/><path d="M581.56,361.76l-.44.9a10.11,10.11,0,0,1-9.63,5.78,10.48,10.48,0,0,1-3.84-.95,10.26,10.26,0,0,1-3.17-2.36l-7.2-7.95L553,352.41A110.06,110.06,0,0,1,528,306.36l-8.74-33.42a10.68,10.68,0,0,0-.43-1.28l-11.15-27.13-1-2.43a10,10,0,0,0-2.5-3.6l-7.7-7.09a10,10,0,0,1-2.61-3.86l-8.15-21.7,18.33,4.3a10.19,10.19,0,0,1,4.77,1.66l8.94,5.94A106.63,106.63,0,0,1,548,248.26l16.18,24.79a108.32,108.32,0,0,1,10.85,21.59l5.92,16a87,87,0,0,1,5.29,26.11l.06,1.24A50.35,50.35,0,0,1,581.56,361.76Z" transform="translate(-19.14 -76.65)" fill="#f6f6f6"/><path d="M194.73,292.76l-.87,11.71c-9.34-9.19-26.51-25.31-26.51-25.31L162.43,275a5,5,0,0,1-1.76-3.91l.25-11.69a5,5,0,0,1,.76-2.54L172,240.36a4.52,4.52,0,0,0,.36-.69l2-4.8a5,5,0,0,1,7.09-2.39l1.06.61a5,5,0,0,1,2.2,2.62L191,253.05a5.07,5.07,0,0,1,.26,2.41l-.95,6.67a54,54,0,0,0,2.6,25.61Z" transform="translate(-19.14 -76.65)" fill="#f6f6f6"/><path d="M557.28,357.18,553,352.41A110.06,110.06,0,0,1,528,306.36l-8.74-33.42a10.68,10.68,0,0,0-.43-1.28l-11.15-27.13C519.5,258,561.4,309.37,557.28,357.18Z" transform="translate(-19.14 -76.65)" fill="#ccc"/><path d="M62.58,130.2l-15.23,4.38c-9.72-9.86-24-18.38-28-28.3a15.46,15.46,0,0,1,.54-2.17,10,10,0,0,1,.41-1.15,16.87,16.87,0,0,1,2.63-4.41c.17-.18.34-.39.53-.57C32.1,102,49.59,107.8,62.58,130.2Z" transform="translate(-19.14 -76.65)" fill="#a63434"/><path d="M118.38,154.08l-6-2.24-.76,9.39-8.68,20.06-3.73-3.1-2,22.08-.45-.81L86,189.93l-.65,10.75s-7.73-8.11-10.59-16.19A68.34,68.34,0,0,0,70.13,174L64,162.89s-2.38-2-6.06-5.33c-3.47-3.16-8.13-7.52-13-12.5-11.47-11.66-24.16-26.63-25.79-37.18a14.27,14.27,0,0,1,.74-3.77c7,.83,29.1,15.06,35.08,17.64,0,0-26.26-18.53-31.13-22.4-.35-.28-.64-.54-.91-.8a66.22,66.22,0,0,1,7.55-7A20.12,20.12,0,0,1,37.36,89l.2,0a6.46,6.46,0,0,1,1.43.51c9.32,4.71,20.6,15.8,27.49,20,7.46,4.55,41.5,3.21,45.13,19.42Z" transform="translate(-19.14 -76.65)" fill="#f6f6f6"/><path d="M45.84,92.22c-.55,3.08-3.77,5.46-7.65,5.46-4.16,0-7.56-2.73-7.72-6.13A19.93,19.93,0,0,1,37.35,89a5.41,5.41,0,0,1,3.72.62C42.16,90.21,43.77,91.11,45.84,92.22Z" transform="translate(-19.14 -76.65)" fill="#202020"/><path d="M81.12,115.32a21.88,21.88,0,0,1,5.83-.1,23.36,23.36,0,0,1,5.71,1.33,19.16,19.16,0,0,1,5.16,2.81,18.14,18.14,0,0,1,4,4.24c-.73-.66-1.31-1.44-2.08-2l-1.09-.94-1.18-.81a22.88,22.88,0,0,0-5.07-2.59,31,31,0,0,0-5.54-1.46c-.94-.16-1.89-.28-2.85-.35A28,28,0,0,0,81.12,115.32Z" transform="translate(-19.14 -76.65)" fill="#131313"/><path d="M427.94,177.89l3.53,6.73-21.23-1.42-3.53,4.26-24,.7,5.3,5.65-28.31-.35,7.08,6c-17.33-1.41-59.08-12.74-59.08-12.74A79.34,79.34,0,0,0,317.2,196c-18.11-2.1-47.86-15.49-48.79-15.9l7.41,8.82c-14.95-3.66-21.81-11.05-22.59-11.94l4.93,8.8c-13.34-5.14-32.84-16.94-32.84-16.94L232,179.56c-9.55-2.21-22.79-12.83-29.53-18.66l25.85,3.1a5.13,5.13,0,0,0,1.95-.15,75.09,75.09,0,0,1,22.4-3l5,.36h0c11.55,1.37,18.4,5.88,20.73,7.65a4.71,4.71,0,0,0,2.22,1c77.75,12.85,117.17,6.73,117.17,6.73a92.43,92.43,0,0,1,38.34.42Z" transform="translate(-19.14 -76.65)" fill="#f6f6f6"/><path d="M410.22,296.14c-2.32.48-4.62.95-6.94,1.37-1.17.23-2.32.43-3.49.65-64.3,11.54-127.89,7.1-144.75,5.58a5,5,0,0,0-5.06,3h0a17.8,17.8,0,0,1,10.34-13.09C283.16,283.65,347.7,261.51,410.22,296.14Z" transform="translate(-19.14 -76.65)" fill="#f6f6f6"/><path d="M278.81,288.74s9.95-7.17,17.61-9.29L289.9,287l26.57-7a44.09,44.09,0,0,1,21.2-6.36s-7.83,4.08-11.25,6.85c0,0,14.18-6,18.59-5.06l-10.27,6.69Z" transform="translate(-19.14 -76.65)" fill="#f6f6f6"/><path d="M516.38,255.09l6.68,18,1.81-6.8,7.27,21.82,3.25-5.92,7.14,27.06-.19-17.06,8,21.67s1.8,11,0,18l2.91-12.29,4,37.61,4.35-31.62-18.36-51.74" transform="translate(-19.14 -76.65)" fill="#f6f6f6"/><path d="M337.28,321.83c-7.52-.4-14.63,2.07-18.39,6.52,8.5.15,15.45-2.47,18.39-6.52Z" transform="translate(-19.14 -76.65)" fill="#508c56"/><path d="M318.67,319.67a27.37,27.37,0,0,0-20,2.93c7.71,1.55,15.36.31,20-2.93Z" transform="translate(-19.14 -76.65)" fill="#508c56"/><path d="M303,314.44c-5.14-2.71-12.68-3.15-19.65-1.09A27.29,27.29,0,0,0,303,314.44Z" transform="translate(-19.14 -76.65)" fill="#508c56"/><path d="M291.14,306.89c-3.44-3.3-10.14-4.93-17.48-4.16,4.27,3.58,11,5.08,17.48,4.16Z" transform="translate(-19.14 -76.65)" fill="#508c56"/><path d="M283.94,298.07c-1.52-3.57-6.83-6.17-13.86-6.68,2.11,4,7.56,6.45,13.86,6.68Z" transform="translate(-19.14 -76.65)" fill="#508c56"/><path d="M281.4,288.7c.08-3.49-3.7-6.63-10-8.11.31,3.94,4.27,7,10,8.11Z" transform="translate(-19.14 -76.65)" fill="#508c56"/><path d="M283.12,279.91c1.81-3.15-.08-6.63-5-9-1.67,3.61.42,7,5,9Z" transform="translate(-19.14 -76.65)" fill="#508c56"/><path d="M288.77,271.65c2.91-2.64,2.57-6.07-1-8.92-3,3.09-2.43,6.51,1,8.92Z" transform="translate(-19.14 -76.65)" fill="#508c56"/><path d="M297,265.11c3.7-2,4.75-5.21,2.6-8.3-3.92,2.41-4.8,5.63-2.6,8.3Z" transform="translate(-19.14 -76.65)" fill="#508c56"/><path d="M303.93,261.45c4.69.26,9.12-1.27,11.49-4-5.31-.12-9.65,1.5-11.49,4Z" transform="translate(-19.14 -76.65)" fill="#508c56"/><path d="M337.28,321.74c-7.46-.74-13.25-4.18-14.91-9.05,8.27,1.12,13.86,4.68,14.91,9.05Z" transform="translate(-19.14 -76.65)" fill="#508c56"/><path d="M318.67,319.67c-6.1-2.28-8.95-6.6-7.31-11.27,6.6,2.82,9.2,7.19,7.31,11.27Z" transform="translate(-19.14 -76.65)" fill="#508c56"/><path d="M303,314.44c-4.41-3.12-4.86-7.54-1.05-11.51,4.61,3.69,4.83,8.11,1.05,11.51Z" transform="translate(-19.14 -76.65)" fill="#508c56"/><path d="M291.14,306.89c-2.54-3.58-.85-7.69,4.57-10.69,2.43,4.12.48,8.2-4.57,10.69Z" transform="translate(-19.14 -76.65)" fill="#508c56"/><path d="M283.94,298.07c-.59-3.66,2.94-7.13,9.29-9,.23,4.15-3.5,7.55-9.29,9Z" transform="translate(-19.14 -76.65)" fill="#508c56"/><path d="M281.4,288.7c1.38-3.4,6.38-5.89,13.1-6.41-2,3.77-7.12,6.16-13.1,6.41Z" transform="translate(-19.14 -76.65)" fill="#508c56"/><path d="M283.12,279.91c2.18-3.08,7.48-5,13.89-4.88-2.79,3.37-8.21,5.16-13.89,4.88Z" transform="translate(-19.14 -76.65)" fill="#508c56"/><path d="M288.77,271.65c3.58-2.32,9.37-3,15-1.75a20.57,20.57,0,0,1-15,1.75Z" transform="translate(-19.14 -76.65)" fill="#508c56"/><path d="M297,265.11c3.9-1.9,9.43-2.11,14.4-.48a20.06,20.06,0,0,1-14.4.48Z" transform="translate(-19.14 -76.65)" fill="#508c56"/><path d="M337.28,321.74c-4.32.5-13.76.23-18.61-2.07,4.18.28,12.39,1.3,18.61,2.07Z" transform="translate(-19.14 -76.65)" fill="#508c56"/><path d="M318.67,319.67c-5-.47-12.45-2.1-15.67-5.23,3.78,1.09,10.28,3.28,15.67,5.23Z" transform="translate(-19.14 -76.65)" fill="#508c56"/><path d="M303,314.44c-4.49-1.37-10.5-4-11.86-7.55A100.15,100.15,0,0,1,303,314.44Z" transform="translate(-19.14 -76.65)" fill="#508c56"/><path d="M291.14,306.9c-3.59-2.12-7.85-5.19-7.28-8.83,2.82,2.07,5.19,5.39,7.28,8.83Z" transform="translate(-19.14 -76.65)" fill="#508c56"/><path d="M283.94,298.07c-2.37-2.63-4.46-5.58-2.54-9.37,1.64,2.47,2.26,5.72,2.54,9.37Z" transform="translate(-19.14 -76.65)" fill="#508c56"/><path d="M281.4,288.7c-1-2.9-1.58-5.92,1.72-8.79.42,2.64-.22,5.54-1.72,8.79Z" transform="translate(-19.14 -76.65)" fill="#508c56"/><path d="M283.12,279.91a10.11,10.11,0,0,1,5.65-8.26c-.54,2.74-2.77,5.34-5.65,8.26Z" transform="translate(-19.14 -76.65)" fill="#508c56"/><path d="M288.77,271.65C290.41,269,292,267,297,265.11c-2,2.4-4.32,4.15-8.24,6.54Z" transform="translate(-19.14 -76.65)" fill="#508c56"/><path d="M297,265.11a12.23,12.23,0,0,1,6.92-3.66c-2.2,1.81-3.75,2.42-6.92,3.66Z" transform="translate(-19.14 -76.65)" fill="#508c56"/><path d="M340.83,321.83c7.51-.4,14.63,2.07,18.38,6.52-8.5.15-15.44-2.47-18.38-6.52Z" transform="translate(-19.14 -76.65)" fill="#508c56"/><path d="M359.44,319.67a27.37,27.37,0,0,1,20,2.93c-7.71,1.55-15.36.31-20-2.93Z" transform="translate(-19.14 -76.65)" fill="#508c56"/><path d="M375.11,314.44c5.14-2.71,12.68-3.15,19.65-1.09a27.3,27.3,0,0,1-19.65,1.09Z" transform="translate(-19.14 -76.65)" fill="#508c56"/><path d="M387,306.89c3.44-3.3,10.13-4.93,17.47-4.16-4.26,3.58-11,5.08-17.47,4.16Z" transform="translate(-19.14 -76.65)" fill="#508c56"/><path d="M394.17,298.07c1.52-3.57,6.83-6.17,13.86-6.68-2.12,4-7.57,6.45-13.86,6.68Z" transform="translate(-19.14 -76.65)" fill="#508c56"/><path d="M396.71,288.7c-.09-3.49,3.7-6.63,10-8.11-.32,3.94-4.27,7-10,8.11Z" transform="translate(-19.14 -76.65)" fill="#508c56"/><path d="M395,279.91c-1.81-3.15.08-6.63,5-9,1.67,3.61-.42,7-5,9Z" transform="translate(-19.14 -76.65)" fill="#508c56"/><path d="M389.34,271.65c-2.91-2.64-2.57-6.07,1-8.92,3,3.09,2.42,6.51-1,8.92Z" transform="translate(-19.14 -76.65)" fill="#508c56"/><path d="M381.09,265.11c-3.69-2-4.74-5.21-2.59-8.3,3.92,2.41,4.8,5.63,2.59,8.3Z" transform="translate(-19.14 -76.65)" fill="#508c56"/><path d="M374.18,261.45c-4.69.26-9.12-1.27-11.49-4,5.3-.12,9.65,1.5,11.49,4Z" transform="translate(-19.14 -76.65)" fill="#508c56"/><path d="M340.83,321.74c7.46-.74,13.24-4.18,14.91-9.05-8.27,1.12-13.86,4.68-14.91,9.05Z" transform="translate(-19.14 -76.65)" fill="#508c56"/><path d="M359.44,319.67c6.1-2.28,8.95-6.6,7.31-11.27-6.61,2.82-9.2,7.19-7.31,11.27Z" transform="translate(-19.14 -76.65)" fill="#508c56"/><path d="M375.11,314.44c4.4-3.12,4.86-7.54,1-11.51-4.6,3.69-4.82,8.11-1,11.51Z" transform="translate(-19.14 -76.65)" fill="#508c56"/><path d="M387,306.89c2.54-3.58.84-7.69-4.58-10.69-2.42,4.12-.48,8.2,4.58,10.69Z" transform="translate(-19.14 -76.65)" fill="#508c56"/><path d="M394.17,298.07c.59-3.66-2.94-7.13-9.29-9-.23,4.15,3.5,7.55,9.29,9Z" transform="translate(-19.14 -76.65)" fill="#508c56"/><path d="M396.71,288.7c-1.38-3.4-6.38-5.89-13.1-6.41,2,3.77,7.11,6.16,13.1,6.41Z" transform="translate(-19.14 -76.65)" fill="#508c56"/><path d="M395,279.91c-2.18-3.08-7.49-5-13.9-4.88,2.8,3.37,8.22,5.16,13.9,4.88Z" transform="translate(-19.14 -76.65)" fill="#508c56"/><path d="M389.34,271.65c-3.59-2.32-9.37-3-15-1.75a20.57,20.57,0,0,0,15,1.75Z" transform="translate(-19.14 -76.65)" fill="#508c56"/><path d="M381.09,265.11c-3.89-1.9-9.43-2.11-14.39-.48a20,20,0,0,0,14.39.48Z" transform="translate(-19.14 -76.65)" fill="#508c56"/><path d="M340.83,321.74c4.32.5,13.75.23,18.61-2.07-4.18.28-12.4,1.3-18.61,2.07Z" transform="translate(-19.14 -76.65)" fill="#508c56"/><path d="M359.44,319.67c5-.47,12.45-2.1,15.67-5.23-3.78,1.09-10.28,3.28-15.67,5.23Z" transform="translate(-19.14 -76.65)" fill="#508c56"/><path d="M375.11,314.44c4.49-1.37,10.5-4,11.86-7.55a99.34,99.34,0,0,0-11.86,7.55Z" transform="translate(-19.14 -76.65)" fill="#508c56"/><path d="M387,306.9c3.58-2.12,7.85-5.19,7.28-8.83-2.82,2.07-5.19,5.39-7.28,8.83Z" transform="translate(-19.14 -76.65)" fill="#508c56"/><path d="M394.17,298.07c2.37-2.63,4.46-5.58,2.54-9.37-1.64,2.47-2.26,5.72-2.54,9.37Z" transform="translate(-19.14 -76.65)" fill="#508c56"/><path d="M396.71,288.7c1-2.9,1.58-5.92-1.72-8.79-.43,2.64.22,5.54,1.72,8.79Z" transform="translate(-19.14 -76.65)" fill="#508c56"/><path d="M395,279.91a10.11,10.11,0,0,0-5.65-8.26c.54,2.74,2.77,5.34,5.65,8.26Z" transform="translate(-19.14 -76.65)" fill="#508c56"/><path d="M389.34,271.65c-1.64-2.69-3.19-4.63-8.25-6.54,2,2.4,4.32,4.15,8.25,6.54Z" transform="translate(-19.14 -76.65)" fill="#508c56"/><path d="M381.09,265.11a12.16,12.16,0,0,0-6.91-3.66c2.2,1.81,3.75,2.42,6.91,3.66Z" transform="translate(-19.14 -76.65)" fill="#508c56"/><path d="M290.81,346.82c10,1.41,17.71,2,20,2.23,14,1.11,15.19,1.16,17.43,1.11,6.71-.17,7.45-.92,14.86-1.11,6.84-.18,8,.4,15.38.55a117.44,117.44,0,0,0,21-1.11A102.22,102.22,0,0,0,400,342.93c11.05-4.21,16.64-6.43,20-12.23.32-.55,5.12-9.09,2.05-15.57-2.28-4.82-6.57-3.53-9.74-8.89-3.3-5.59.11-9.1-3.07-14.46-2.13-3.59-5.87-5.17-13.33-8.34-8.48-3.59-9.52-2.2-12.31-5-3.76-3.79-2.83-7.31-7.69-12.23a25.18,25.18,0,0,0-6.15-4.45,41.8,41.8,0,0,0-15.89-5c-6.44-.82-22.66-2.87-40,6.11-6.08,3.16-10.36,5.38-13.84,10.57-4.39,6.55-2.85,10.91-7.69,15.56s-8.48,2.17-12.81,7.23c-3,3.52-5.4,9.56-3.59,13.9s6.66,3.75,7.33,7.09c.94,4.69-8.26,7.5-8.87,15.15-.45,5.62,4.06,10,4.61,10.56C281.51,345.29,284.1,345.87,290.81,346.82Z" transform="translate(-19.14 -76.65)" fill="#6e4439"/><path d="M379.13,451.52c-3.21-8.66-3.61-19.59-3.61-19.59-2.8-33.55-15.2-36.79-15.2-36.79-7.51-4.69-18.32-3.43-18.32-3.43s-10.81-1.26-18.32,3.43c0,0-12.4,3.24-15.2,36.79,0,0-.4,10.93-3.61,19.59-6,16.33-7.78,40.5,13.51,46.28a158.49,158.49,0,0,0,47.24,0C386.9,492,385.16,467.85,379.13,451.52Z" transform="translate(-19.14 -76.65)" fill="#fdb"/><path d="M304,454.11s39.4,7.28,76.11,0c0,0,6.75,7.87,3,20.72,0,0-25.18-.29-28.84,24.24a23.42,23.42,0,0,1-24.63,0s-2.71-21.69-28.46-21.75C301.19,477.32,297.07,464.62,304,454.11Z" transform="translate(-19.14 -76.65)" fill="#f2795c"/><path d="M349.37,500c-5.16.77-11.52.57-15.15-3.8-2.25-2.7-2.24-6.2-2.68-9.52-.55-4.2-2.54-8.13-6.62-9.89-4.92-2.11-12.53-2.23-14.61-8.26-1.59-4.64,1.46-9.51,4.94-12.4l.5-.39c-7.31-.82-11.77-1.64-11.77-1.64-6.91,10.51-2.79,23.21-2.79,23.21,25.75.06,28.46,21.75,28.46,21.75a23.42,23.42,0,0,0,24.63,0l0-.13A39.26,39.26,0,0,1,349.37,500Z" transform="translate(-19.14 -76.65)" fill="#f2795c"/><path d="M380.09,454.11l-.89.17c-.26,3.36.89,6.86-.65,10.08-1.78,3.71-5.78,5.33-9.35,6.82a17.15,17.15,0,0,0-6,3.61,13.78,13.78,0,0,0-3.42,6.7,20.22,20.22,0,0,0-.41,4.73c8.48-11.55,23.76-11.39,23.76-11.39C386.84,462,380.09,454.11,380.09,454.11Z" transform="translate(-19.14 -76.65)" fill="#f2795c"/><path d="M282.65,499.57c5.46-12.72,18.54-22.25,18.54-22.25,25.35.46,28.46,21.75,28.46,21.75s-10.57,10.21-21,8.61c0,0-8.27,10.49-18.7,4.8Z" transform="translate(-19.14 -76.65)" fill="#fdb"/><path d="M291.94,478.85a4.81,4.81,0,1,0,3.76-6A5,5,0,0,0,291.94,478.85Z" transform="translate(-19.14 -76.65)" fill="#fdb"/><path d="M287.06,481c.4,2.18,2,3.7,3.65,3.4s2.59-2.3,2.19-4.48-2-3.71-3.66-3.41S286.65,478.79,287.06,481Z" transform="translate(-19.14 -76.65)" fill="#fdb"/><path d="M282.17,483.6c.4,2.18,2,3.7,3.65,3.4s2.59-2.31,2.19-4.49-2-3.7-3.65-3.4S281.76,481.41,282.17,483.6Z" transform="translate(-19.14 -76.65)" fill="#fdb"/><path d="M277.65,486c.41,2.18,2,3.71,3.66,3.41s2.59-2.31,2.19-4.49-2-3.71-3.66-3.41S277.25,483.85,277.65,486Z" transform="translate(-19.14 -76.65)" fill="#fdb"/><path d="M274.26,489.15c.3,1.64,1.54,2.8,2.76,2.57s2-1.75,1.66-3.39-1.54-2.81-2.77-2.58S274,487.49,274.26,489.15Z" transform="translate(-19.14 -76.65)" fill="#fdb"/><path d="M280.37,509.4a21.76,21.76,0,0,0,4.15,7.31c2.31,2.53,5.81,4.22,9.24,3.52A11.07,11.07,0,0,0,302.89,508a46.68,46.68,0,0,0-1.14-7.67,9.7,9.7,0,0,1,.37-6.42c3.15-7.84-2.23-12-2.23-12l-5.59-3.5-18,9.49-.72,3.48a4,4,0,0,1,1.93,3.08A62.14,62.14,0,0,0,280.37,509.4Z" transform="translate(-19.14 -76.65)" fill="#fdb"/><path d="M297.6,483.1l-.65.12-.67,0-.67-.09L295,483l-.63-.28-.59-.36-.54-.44-.47-.5.56-.17a5.17,5.17,0,0,1-.13.95,1.93,1.93,0,0,1-.13.47,4.37,4.37,0,0,1-.18.46l-.24.43-.32.41c-.11.12-.25.23-.38.35a2.2,2.2,0,0,1-.44.28,2.75,2.75,0,0,1-.5.2l-.13,0h-.15l-.23,0a3.55,3.55,0,0,1-.56,0,2.83,2.83,0,0,1-.52-.13,3.25,3.25,0,0,1-.93-.47,4.13,4.13,0,0,1-.75-.69l.91-.35a6.55,6.55,0,0,1,0,1l-.08.5-.14.49a2.14,2.14,0,0,1-.2.47,2.3,2.3,0,0,1-.25.46l-.31.43-.39.37a2.85,2.85,0,0,1-.46.31,1.85,1.85,0,0,1-.52.22l-.27.08h-.3a3.61,3.61,0,0,1-.47,0l-.6-.11a2.38,2.38,0,0,1-.51-.22,1.51,1.51,0,0,1-.46-.27l-.42-.32.92-.37a5.54,5.54,0,0,1-.17,1,2.16,2.16,0,0,1-.16.49,4.73,4.73,0,0,1-.2.47l-.28.44-.34.41-.41.35a3.72,3.72,0,0,1-.48.27,2.28,2.28,0,0,1-.52.18l-.13,0a.37.37,0,0,1-.16,0l-.23,0a2.88,2.88,0,0,1-1.09-.18,3,3,0,0,1-.9-.52,4.34,4.34,0,0,1-.71-.71l.75-.35c0,.24,0,.36.05.55a3.94,3.94,0,0,1,0,.59,2.82,2.82,0,0,1-.1.58,2.76,2.76,0,0,1-.19.55,2.61,2.61,0,0,1-.28.52,2.38,2.38,0,0,1-.39.45,2.2,2.2,0,0,1-1.07.53,2,2,0,0,1-1.16-.18,2.51,2.51,0,0,1-.47-.3,2.12,2.12,0,0,1-.4-.39,3.28,3.28,0,0,1-.32-.44,3.17,3.17,0,0,1-.24-.49,4.32,4.32,0,0,1-.16-.51l-.09-.51.17.49c.06.16.16.31.23.46a3.18,3.18,0,0,0,.28.43,2.37,2.37,0,0,0,.34.37,1.62,1.62,0,0,0,.39.3,1.43,1.43,0,0,0,.43.21,2.26,2.26,0,0,0,.42.09,3.2,3.2,0,0,0,.48,0,2.32,2.32,0,0,0,.39-.18,1.58,1.58,0,0,0,.34-.29,1.32,1.32,0,0,0,.26-.36,1.59,1.59,0,0,0,.19-.42,1.74,1.74,0,0,0,.11-.45,2.49,2.49,0,0,0,0-.46,3.68,3.68,0,0,0,0-.46c0-.15-.05-.38-.08-.48l-.44-1.63L279,488a3.67,3.67,0,0,0,.59.53,2.71,2.71,0,0,0,.68.34,2,2,0,0,0,.35.08l.32,0,.23,0h.06l.09,0c.1-.05.23-.05.32-.12a3,3,0,0,0,.3-.19l.27-.24.23-.29.19-.33a3.88,3.88,0,0,0,.15-.36,1.73,1.73,0,0,0,.11-.37,4.34,4.34,0,0,0,.13-.79l.14-1,.78.58.31.22a.93.93,0,0,0,.32.18,1.48,1.48,0,0,0,.32.14,1.64,1.64,0,0,1,.28.07c.11,0,.29,0,.43,0h.14l.16-.05a1,1,0,0,0,.32-.13c.09-.07.21-.1.29-.19l.27-.24.21-.3a1.35,1.35,0,0,0,.19-.33,1.61,1.61,0,0,0,.15-.36l.12-.37.07-.4a7.18,7.18,0,0,0,.06-.8l.12-1.29.79.93a3.5,3.5,0,0,0,.55.54,2.19,2.19,0,0,0,.65.36,1.4,1.4,0,0,0,.35.1,2.68,2.68,0,0,0,.33,0l.22,0h.07l.08,0a1.57,1.57,0,0,0,.35-.11,1.72,1.72,0,0,0,.32-.18c.09-.08.2-.14.29-.23l.26-.29.21-.34c.07-.11.12-.24.18-.36a2.58,2.58,0,0,0,.14-.39,5.58,5.58,0,0,0,.18-.81l.13-.71.42.54.39.49.44.44.49.39.55.32.59.24.62.16.64.07Z" transform="translate(-19.14 -76.65)" fill="#e5c6a9"/><path d="M296.36,486.42a1.53,1.53,0,0,0-.77-.45,3.21,3.21,0,0,0-1-.14,8.16,8.16,0,0,0-1.31.13,15.3,15.3,0,0,0-1.52.42c-.53.17-1.09.38-1.65.62l-.87.37-.87.42c-.59.26-1.16.59-1.75.89a15.62,15.62,0,0,0-1.7,1c-.53.35-1.07.69-1.55,1.06a14.7,14.7,0,0,0-2.45,2.25,8.12,8.12,0,0,0-.77,1.08,6.83,6.83,0,0,0-.44.93,5.76,5.76,0,0,0-.18.65,2.2,2.2,0,0,1-.06.24v-.25a4.32,4.32,0,0,1,0-.69,4.71,4.71,0,0,1,.27-1.06,6.29,6.29,0,0,1,.63-1.28,15.19,15.19,0,0,1,5.7-4.9c.61-.29,1.21-.62,1.83-.88s1.23-.51,1.84-.73a14.52,14.52,0,0,1,1.78-.5,9.36,9.36,0,0,1,1.66-.24,5.93,5.93,0,0,1,1.43.07,3.3,3.3,0,0,1,1.05.37,1.74,1.74,0,0,1,.54.44A.82.82,0,0,1,296.36,486.42Z" transform="translate(-19.14 -76.65)" fill="#e5c6a9"/><path d="M302.83,508c-.1-1.13-.23-2.26-.38-3.39-.07-.57-.18-1.13-.27-1.69a13.73,13.73,0,0,0-.34-1.67c-.13-.54-.28-1.11-.39-1.66l-.19-.84-.05-.88c0-.29,0-.59,0-.88l.11-.86a6.29,6.29,0,0,1,.13-.87l.25-.84c.16-.58.32-1.08.5-1.64a14,14,0,0,0,.38-1.62,12.8,12.8,0,0,0,.13-1.64v-.82l-.09-.82a9.54,9.54,0,0,0-.37-1.58,6.28,6.28,0,0,0-.29-.76,5.47,5.47,0,0,0-.35-.73,9.65,9.65,0,0,0-.89-1.36c-.18-.21-.35-.42-.54-.61l-.28-.28-.14-.13-.07-.07,0,0s0,0,.07.05a.41.41,0,0,0,.19,0l-.35-.87.38-.4.32-.45.27-.49c.07-.17.13-.34.2-.52a4.92,4.92,0,0,0,.24-1.09,4.67,4.67,0,0,0,0-1.12l0-.28-.07-.25-.17-.6c-.13-.36-.3-.65-.46-1a4.91,4.91,0,0,0-.71-.87l-.4-.39c-.16-.12-.32-.21-.48-.31a4.11,4.11,0,0,0-1-.47,3.35,3.35,0,0,0-.55-.11,2.14,2.14,0,0,0-.56-.06l-.57,0h-.14l-.11,0-.3.08a4,4,0,0,0-1.05.43,4.44,4.44,0,0,0-.89.73,4.86,4.86,0,0,0-.7.92,5.32,5.32,0,0,0-.44,1.08,5.63,5.63,0,0,0-.2,1.16l-.08.49-.31-.35a3.91,3.91,0,0,0-.67-.62,2.5,2.5,0,0,0-.8-.4,2.14,2.14,0,0,0-.87-.06,2.25,2.25,0,0,0-.44.12c-.17,0-.26.14-.39.2a1.73,1.73,0,0,0-.35.27,2,2,0,0,0-.3.34,4.14,4.14,0,0,0-.45.8l-.14.44a3.69,3.69,0,0,0-.08.46,4.84,4.84,0,0,0-.05.93l0,.45-.29-.33a4.34,4.34,0,0,0-.63-.58,2.62,2.62,0,0,0-.74-.39,2,2,0,0,0-.81-.11l-.21,0h-.08l-.11,0a1.58,1.58,0,0,0-.4.15,2.09,2.09,0,0,0-.34.21c-.1.09-.21.17-.31.27l-.26.33-.21.36c-.07.12-.11.26-.17.39a1.93,1.93,0,0,0-.12.41,5.87,5.87,0,0,0-.13.84l-.05.4-.34-.24-.39-.29a2.18,2.18,0,0,0-.43-.22,1.39,1.39,0,0,0-.44-.13,1,1,0,0,0-.46,0h-.29s-.06,0,0,0h0l-.12,0a2.88,2.88,0,0,0-.47.19l-.35.25-.32.34a2.42,2.42,0,0,0-.25.4,1.75,1.75,0,0,0-.2.44,2.25,2.25,0,0,0-.15.46l-.09.47a4,4,0,0,0,0,.49,1.61,1.61,0,0,0,0,.49l.06.49c0,.12.07.32.1.48l.2.95-.8-.62c-.14-.1-.26-.21-.39-.31a2.09,2.09,0,0,0-.44-.19,1.17,1.17,0,0,0-.45-.06H276l-.22.08c-.22.05-.26.16-.38.22a2.5,2.5,0,0,0-.31.34,2.55,2.55,0,0,0-.23.43,2,2,0,0,0-.14.48,2.92,2.92,0,0,0,0,1l0,.26v.1l0,.14a2.45,2.45,0,0,0,.16.5,2.59,2.59,0,0,0,1.25,1.42l0,0,0,0a4.18,4.18,0,0,1,1.27,1.45,5.48,5.48,0,0,1,.56,1.8l.38,3.36.5,3.32c.15,1.11.45,2.19.66,3.29a32.5,32.5,0,0,0,.86,3.22l.47,1.58.62,1.58a15.73,15.73,0,0,0,.7,1.49l.36.74c.13.24.29.46.43.7a14.06,14.06,0,0,0,.9,1.37l1,1.26a14.24,14.24,0,0,0,1.2,1.15l.61.51.67.44a11.56,11.56,0,0,0,1.42.78c.25.1.51.18.76.27a3.42,3.42,0,0,0,.77.23l.79.17c.26,0,.53,0,.8.07a7.18,7.18,0,0,0,1.6-.07,12.31,12.31,0,0,0,3.15-.94,11.44,11.44,0,0,0,2.76-1.81,9.78,9.78,0,0,0,2.05-2.61,10.78,10.78,0,0,0,1.12-3.15A13.48,13.48,0,0,0,302.83,508Zm.12,0a14.32,14.32,0,0,1-.14,3.4,11.28,11.28,0,0,1-1.08,3.23,10.76,10.76,0,0,1-2,2.79,11.87,11.87,0,0,1-2.79,2,13.69,13.69,0,0,1-3.26,1.18,8.77,8.77,0,0,1-1.77.16c-.29,0-.59,0-.89,0l-.87-.15a4.93,4.93,0,0,1-.86-.22c-.28-.1-.57-.17-.84-.28a13.75,13.75,0,0,1-1.58-.8l-.76-.47-.71-.55a4.67,4.67,0,0,1-.66-.57l-.61-.59L283,515.74a15.26,15.26,0,0,1-1-1.45c-.15-.25-.32-.49-.46-.75l-.39-.78a17.16,17.16,0,0,1-.74-1.57l-.63-1.57-.51-1.67a29.4,29.4,0,0,1-.89-3.31c-.21-1.13-.49-2.24-.63-3.37l-.46-3.38L277,494.5a5,5,0,0,0-.43-1.42,3.27,3.27,0,0,0-.92-1.09l.07,0a3.6,3.6,0,0,1-1.7-2,5,5,0,0,1-.18-.61l0-.14a1.62,1.62,0,0,1,0-.18l0-.32a4.16,4.16,0,0,1,.1-1.28,2.83,2.83,0,0,1,.21-.62,3.33,3.33,0,0,1,.33-.58,3.76,3.76,0,0,1,.48-.5,2.57,2.57,0,0,1,.63-.33l.33-.1h.36a1.74,1.74,0,0,1,.68.11,3.14,3.14,0,0,1,.61.3c.18.13.34.28.5.42l-.61.33c0-.18-.08-.31-.1-.53l-.05-.56a3.37,3.37,0,0,1,0-.55,5.29,5.29,0,0,1,.05-.56l.12-.55a3.24,3.24,0,0,1,.19-.52,2,2,0,0,1,.25-.51,3,3,0,0,1,.32-.47l.4-.41a5.84,5.84,0,0,1,.53-.33,2.51,2.51,0,0,1,.5-.18l.12,0h.47a1.62,1.62,0,0,1,.58.06,1.64,1.64,0,0,1,.54.18,2.91,2.91,0,0,1,.49.27l.45.35-.39.15a5.73,5.73,0,0,1,.17-.92,2.64,2.64,0,0,1,.15-.45,4,4,0,0,1,.19-.43l.24-.41.31-.37a2.76,2.76,0,0,1,.37-.31,1.82,1.82,0,0,1,.43-.26,2.07,2.07,0,0,1,.43-.16l.11,0,.08,0h.06l.24,0a2.56,2.56,0,0,1,.95.15,3,3,0,0,1,.84.45,4.64,4.64,0,0,1,.68.65l-.31.12a5.54,5.54,0,0,1,.06-1,4.21,4.21,0,0,1,.09-.49l.15-.49a4.51,4.51,0,0,1,.48-.89,1.76,1.76,0,0,1,.34-.39,2,2,0,0,1,.41-.33,2,2,0,0,1,.46-.24,2.74,2.74,0,0,1,.5-.14,2.61,2.61,0,0,1,1,.05,3.08,3.08,0,0,1,.93.45,4.11,4.11,0,0,1,.76.68l-.38.14a6.09,6.09,0,0,1,.19-1.27,5.24,5.24,0,0,1,.44-1.2,4.87,4.87,0,0,1,.73-1.06,5.41,5.41,0,0,1,1-.87,4.93,4.93,0,0,1,1.2-.55l.29-.09.18-.05.16,0,.67-.06a2.44,2.44,0,0,1,.66,0,4.56,4.56,0,0,1,1.88.61c.19.12.39.22.57.35l.5.44a5.89,5.89,0,0,1,.86,1,7,7,0,0,1,.61,1.22l.17.59.09.34.05.33a5.39,5.39,0,0,1,0,1.33,5.85,5.85,0,0,1-.26,1.31c-.08.21-.15.42-.24.63l-.32.59-.38.56-.46.5-.35-.87a.79.79,0,0,1,.28.1l.11.07,0,0,.09.08.17.15.32.33c.21.22.39.46.58.69a10.44,10.44,0,0,1,1,1.52,8.58,8.58,0,0,1,.37.82,6,6,0,0,1,.3.84,9.56,9.56,0,0,1,.37,1.75l.07.89c0,.3,0,.59,0,.89a12.9,12.9,0,0,1-.23,1.75,15,15,0,0,1-.48,1.69c-.2.52-.42,1.09-.59,1.6l-.27.79a5.68,5.68,0,0,0-.17.82l-.14.82a7.66,7.66,0,0,0,0,.83v.83l.14.85c.1.56.2,1.1.33,1.67a16.19,16.19,0,0,1,.31,1.69c.08.57.19,1.13.24,1.7C302.75,505.72,302.86,506.86,303,508Z" transform="translate(-19.14 -76.65)" fill="#e5c6a9"/><path d="M402.38,498.84c-5.46-12.71-18.54-22.25-18.54-22.25-25.34.47-28.45,21.76-28.45,21.76s10.56,10.2,21,8.6c0,0,8.27,10.5,18.7,4.81Z" transform="translate(-19.14 -76.65)" fill="#fdb"/><path d="M393.09,478.12a4.8,4.8,0,1,1-3.75-6A5,5,0,0,1,393.09,478.12Z" transform="translate(-19.14 -76.65)" fill="#fdb"/><path d="M398,480.24c-.4,2.18-2,3.71-3.65,3.41s-2.6-2.31-2.19-4.49,2-3.7,3.65-3.4S398.39,478.07,398,480.24Z" transform="translate(-19.14 -76.65)" fill="#fdb"/><path d="M402.87,482.87c-.4,2.18-2,3.7-3.65,3.41s-2.6-2.31-2.19-4.49,2-3.71,3.65-3.41S403.27,480.69,402.87,482.87Z" transform="translate(-19.14 -76.65)" fill="#fdb"/><path d="M407.38,485.31c-.4,2.18-2,3.7-3.65,3.4s-2.59-2.31-2.19-4.49,2-3.7,3.65-3.4S407.79,483.13,407.38,485.31Z" transform="translate(-19.14 -76.65)" fill="#fdb"/><path d="M410.78,488.42c-.31,1.65-1.55,2.81-2.77,2.58s-2-1.75-1.66-3.4,1.55-2.81,2.77-2.58S411.09,486.77,410.78,488.42Z" transform="translate(-19.14 -76.65)" fill="#fdb"/><path d="M404.67,508.67a21.57,21.57,0,0,1-4.15,7.31c-2.31,2.54-5.82,4.22-9.24,3.52a11,11,0,0,1-9.13-12.23,46.84,46.84,0,0,1,1.14-7.67,9.73,9.73,0,0,0-.37-6.41c-3.16-7.85,2.23-12,2.23-12l5.59-3.5,18,9.5.72,3.47a4,4,0,0,0-1.93,3.08A62.54,62.54,0,0,1,404.67,508.67Z" transform="translate(-19.14 -76.65)" fill="#fdb"/><path d="M387.43,482.37l.66,0,.64-.07.63-.16.59-.24.54-.32.5-.38.44-.45.38-.49.43-.53.13.7a4.43,4.43,0,0,0,.18.82,1.74,1.74,0,0,0,.14.38,3.14,3.14,0,0,0,.18.37l.21.33.26.29c.09.09.2.16.29.24a2.58,2.58,0,0,0,.32.18,1.35,1.35,0,0,0,.34.11l.09,0h.06l.23,0a3.11,3.11,0,0,0,.33,0,2.68,2.68,0,0,0,.35-.1,2.39,2.39,0,0,0,.64-.36,3.64,3.64,0,0,0,.56-.55l.79-.93.12,1.29a5.42,5.42,0,0,0,.06.81l.07.39.12.38a1.37,1.37,0,0,0,.15.35,1.74,1.74,0,0,0,.18.33l.22.31.27.24a1.45,1.45,0,0,0,.29.19.84.84,0,0,0,.31.12l.16.06h0c.06,0-.09,0-.08,0h.19a3.34,3.34,0,0,0,.44,0l.28-.07c.09,0,.21-.09.32-.13a1.45,1.45,0,0,0,.32-.18l.3-.23.79-.57.13.95a5.08,5.08,0,0,0,.13.78,1.46,1.46,0,0,0,.12.37,2.28,2.28,0,0,0,.15.36l.19.33.23.29a3.08,3.08,0,0,0,.27.24,1.89,1.89,0,0,0,.3.19c.09.08.21.08.32.13l.08,0c-.05,0,.05,0,.07,0l.22,0a1.76,1.76,0,0,0,.33,0,2.58,2.58,0,0,0,.35-.09,2.12,2.12,0,0,0,.67-.34,3.31,3.31,0,0,0,.6-.53l1.46-1.57-.72,2h0s0,0,0,0h0v.07l0,.13,0,.26a2.39,2.39,0,0,0,0,.46,1.73,1.73,0,0,0,.05.45,1.65,1.65,0,0,0,.11.45,1.77,1.77,0,0,0,.18.42,1.68,1.68,0,0,0,.27.37,1.26,1.26,0,0,0,.33.28,2.87,2.87,0,0,0,.4.18,3.08,3.08,0,0,0,.47,0,2.36,2.36,0,0,0,.43-.09,1.9,1.9,0,0,0,.43-.21,2.25,2.25,0,0,0,.39-.3,2.05,2.05,0,0,0,.34-.38,3.07,3.07,0,0,0,.28-.42c.07-.15.17-.3.23-.46l.17-.5-.1.52a3,3,0,0,1-.16.51,3.58,3.58,0,0,1-.55.92,2.11,2.11,0,0,1-.4.39,2,2,0,0,1-.48.31,2.46,2.46,0,0,1-.58.18,3.61,3.61,0,0,1-.57,0,2.32,2.32,0,0,1-.58-.19,1.9,1.9,0,0,1-.49-.35,2.07,2.07,0,0,1-.39-.45,2.12,2.12,0,0,1-.28-.51,1.89,1.89,0,0,1-.19-.55,2.28,2.28,0,0,1-.1-.59,3.88,3.88,0,0,1,0-.58l0-.26v-.2h0v-.11l.75.37a4.39,4.39,0,0,1-.71.72,3.21,3.21,0,0,1-.9.52,3.34,3.34,0,0,1-.52.14,3.86,3.86,0,0,1-.58,0l-.22,0-.16,0-.13,0A2.37,2.37,0,0,1,403,489a4.39,4.39,0,0,1-.47-.27,3.44,3.44,0,0,1-.41-.35l-.35-.4-.27-.45a4,4,0,0,1-.21-.47,2.67,2.67,0,0,1-.15-.48,5.73,5.73,0,0,1-.18-1l.92.37-.41.32a2.13,2.13,0,0,1-.46.27,2.6,2.6,0,0,1-.51.21l-.6.12c-.19,0-.31,0-.47,0h-.31l-.27-.08a1.55,1.55,0,0,1-.51-.22,2.43,2.43,0,0,1-.46-.3l-.4-.38-.31-.43a4,4,0,0,1-.25-.45,2.82,2.82,0,0,1-.19-.48l-.15-.49-.07-.49a6.72,6.72,0,0,1,0-1l.91.36a4.39,4.39,0,0,1-.75.68,3.42,3.42,0,0,1-.93.48,3,3,0,0,1-.52.12,2.74,2.74,0,0,1-.57,0l-.22,0h-.07c-.08,0,0,0,0,0h0l-.13,0a2.15,2.15,0,0,1-.5-.19,3.46,3.46,0,0,1-.45-.29,3.15,3.15,0,0,1-.38-.35l-.31-.4-.25-.44a3.14,3.14,0,0,1-.18-.46,3.62,3.62,0,0,1-.13-.47,6,6,0,0,1-.12-.95l.56.17-.48.51c-.17.15-.36.29-.54.43l-.58.36-.63.28-.65.19-.67.08-.68,0Z" transform="translate(-19.14 -76.65)" fill="#e5c6a9"/><path d="M388.68,485.7a.73.73,0,0,1,.13-.21,1.68,1.68,0,0,1,.55-.45,3.16,3.16,0,0,1,1-.36,6.53,6.53,0,0,1,1.43-.08,10.22,10.22,0,0,1,1.66.24,14.25,14.25,0,0,1,1.79.51,17.58,17.58,0,0,1,1.84.73c.62.26,1.21.58,1.83.88a15.18,15.18,0,0,1,5.7,4.9,5.68,5.68,0,0,1,.62,1.27,4.34,4.34,0,0,1,.27,1.06,3.48,3.48,0,0,1,0,.7v.24l-.06-.24a4.19,4.19,0,0,0-.18-.65,5,5,0,0,0-.44-.92,7.24,7.24,0,0,0-.76-1.09,14.67,14.67,0,0,0-2.45-2.24c-.48-.38-1-.71-1.56-1.07a16.4,16.4,0,0,0-1.69-1c-.59-.3-1.17-.64-1.76-.9l-.87-.41-.86-.37q-.85-.36-1.65-.63c-.54-.17-1-.31-1.52-.41a7.15,7.15,0,0,0-1.31-.13,3.52,3.52,0,0,0-1,.13A1.5,1.5,0,0,0,388.68,485.7Z" transform="translate(-19.14 -76.65)" fill="#e5c6a9"/><path d="M405.72,507.23l-.51,1.66-.63,1.58c-.19.52-.49,1-.74,1.56l-.4.79c-.14.25-.3.49-.45.74a15.91,15.91,0,0,1-1,1.45l-1.12,1.39-.61.59a6.46,6.46,0,0,1-.66.57l-.72.55-.75.47a12.94,12.94,0,0,1-1.58.79c-.27.11-.56.19-.84.28a4.18,4.18,0,0,1-.86.22L394,520c-.29,0-.59,0-.89,0a8.68,8.68,0,0,1-1.76-.17,13.73,13.73,0,0,1-3.27-1.17,12.15,12.15,0,0,1-2.78-2,10.52,10.52,0,0,1-2-2.78,11.26,11.26,0,0,1-1.07-3.23,13.85,13.85,0,0,1-.14-3.4c.09-1.14.19-2.27.33-3.41.05-.57.16-1.13.23-1.7a16,16,0,0,1,.32-1.68c.13-.57.23-1.12.32-1.68l.15-.84v-.83c0-.28,0-.56,0-.83l-.15-.83a5.53,5.53,0,0,0-.16-.81l-.27-.79c-.17-.52-.39-1.08-.59-1.61a16,16,0,0,1-.49-1.69,12.9,12.9,0,0,1-.23-1.75c0-.29,0-.59,0-.89l.08-.88a9.56,9.56,0,0,1,.37-1.75,6.61,6.61,0,0,1,.3-.85,5.92,5.92,0,0,1,.37-.81,9.93,9.93,0,0,1,.95-1.52c.19-.24.37-.47.58-.69a3.34,3.34,0,0,1,.32-.33l.17-.16.09-.07c.06-.06-.05,0,0,.09l.1.59-.46-.51-.39-.55-.31-.6c-.09-.2-.17-.41-.25-.62a6.61,6.61,0,0,1-.26-1.31,6,6,0,0,1,0-1.34l0-.33.1-.33.17-.6a8,8,0,0,1,.6-1.21,6,6,0,0,1,.87-1l.5-.44c.18-.12.38-.23.57-.34a5.25,5.25,0,0,1,1.22-.51,3.76,3.76,0,0,1,.66-.1,2.44,2.44,0,0,1,.66,0l.66.06.17,0a1.06,1.06,0,0,1,.18,0l.29.09a5.11,5.11,0,0,1,1.2.55,5,5,0,0,1,1,.86,5.06,5.06,0,0,1,.74,1.06,5.5,5.5,0,0,1,.44,1.21,6.73,6.73,0,0,1,.19,1.26l-.39-.13a4.56,4.56,0,0,1,.76-.69,3.12,3.12,0,0,1,.94-.44,2.6,2.6,0,0,1,1-.06c.22,0,.33.1.49.14a1.94,1.94,0,0,1,.47.25,1.65,1.65,0,0,1,.41.33,1.55,1.55,0,0,1,.33.39,3.87,3.87,0,0,1,.49.89l.14.48a4.26,4.26,0,0,1,.1.49,6.71,6.71,0,0,1,.06,1l-.31-.12a4.2,4.2,0,0,1,.68-.65,3.08,3.08,0,0,1,.84-.45,2.52,2.52,0,0,1,.95-.14l.24,0h.06l.08,0,.1,0a1.56,1.56,0,0,1,.44.16,2.3,2.3,0,0,1,.43.25c.12.11.26.2.37.32l.3.37.25.41a4.28,4.28,0,0,1,.19.43,2.28,2.28,0,0,1,.15.44,6.07,6.07,0,0,1,.17.93l-.39-.16.44-.34a2.19,2.19,0,0,1,.5-.27,1.64,1.64,0,0,1,.54-.18,1.24,1.24,0,0,1,.57-.06h.47l.13,0a3.34,3.34,0,0,1,.5.18l.52.33.4.42a3,3,0,0,1,.33.46,2.41,2.41,0,0,1,.25.51,3.75,3.75,0,0,1,.19.53l.11.55a2.56,2.56,0,0,1,.05.55,3.51,3.51,0,0,1,0,.56l-.06.55a3.73,3.73,0,0,1-.1.54l-.61-.33c.17-.14.33-.3.51-.43a2.77,2.77,0,0,1,.6-.29,2,2,0,0,1,.69-.12l.36,0,.33.1a2.1,2.1,0,0,1,.62.33,3.78,3.78,0,0,1,.49.49,4.27,4.27,0,0,1,.33.58,5,5,0,0,1,.21.62,3.69,3.69,0,0,1,.1.64,3.53,3.53,0,0,1,0,.65l0,.32c0,.06,0,.08,0,.18l0,.14a3.83,3.83,0,0,1-1.87,2.61l.06,0a3.38,3.38,0,0,0-.91,1.1,4.65,4.65,0,0,0-.43,1.42l-.33,3.38-.46,3.39c-.15,1.13-.43,2.24-.63,3.36m-24.41,3.37a14.45,14.45,0,0,0,.2,3.35,11.16,11.16,0,0,0,1.12,3.15,9.86,9.86,0,0,0,2.06,2.61,11.42,11.42,0,0,0,2.75,1.82,13.37,13.37,0,0,0,3.16.94,7.77,7.77,0,0,0,1.6.06,7,7,0,0,0,.8-.07l.79-.16a4.25,4.25,0,0,0,.77-.23c.25-.1.51-.17.76-.28a12,12,0,0,0,1.41-.77l.68-.45.61-.5a16.14,16.14,0,0,0,1.2-1.16l1-1.26A14.72,14.72,0,0,0,402,513c.14-.23.29-.46.43-.7l.36-.73c.23-.5.5-1,.7-1.5l.62-1.57.47-1.58a32,32,0,0,0,.86-3.23c.21-1.09.5-2.18.66-3.28l.5-3.33.37-3.36a5.52,5.52,0,0,1,.57-1.79,4,4,0,0,1,1.27-1.45l0,0,0,0a3,3,0,0,0,1.41-1.92l0-.14v-.11l0-.26a1.74,1.74,0,0,0,0-.51,2.07,2.07,0,0,0-.06-.5,2,2,0,0,0-.14-.48,2.5,2.5,0,0,0-.23-.43,2.67,2.67,0,0,0-.31-.35c-.13-.06-.16-.16-.38-.22a1,1,0,0,1-.22-.08h-.23a1.11,1.11,0,0,0-.44.05,2.48,2.48,0,0,0-.44.2c-.13.09-.26.21-.39.31l-.8.61.19-.94a3.7,3.7,0,0,0,.11-.49l.06-.49a2.57,2.57,0,0,0,0-.48,2.69,2.69,0,0,0,0-.49l-.08-.48a4.11,4.11,0,0,0-.15-.46,1.69,1.69,0,0,0-.2-.43,2.75,2.75,0,0,0-.26-.4l-.31-.35-.35-.24a2.2,2.2,0,0,0-.47-.19l-.13,0,0,0c.06,0,0,0,0,0h-.06l-.23,0a1.2,1.2,0,0,0-.46,0,1.22,1.22,0,0,0-.45.13,2.1,2.1,0,0,0-.42.22l-.4.28-.33.25,0-.4a6.24,6.24,0,0,0-.13-.85,2.64,2.64,0,0,0-.12-.4c-.06-.13-.1-.27-.17-.39l-.21-.37-.27-.32a4.12,4.12,0,0,0-.31-.28,2.3,2.3,0,0,0-.33-.21,2,2,0,0,0-.41-.15l-.1,0h-.09l-.2,0a2,2,0,0,0-.81.12,2.44,2.44,0,0,0-.75.39,3.39,3.39,0,0,0-.62.58l-.29.32,0-.44a5.93,5.93,0,0,0-.05-.94,2.24,2.24,0,0,0-.09-.45l-.14-.45a3.5,3.5,0,0,0-.45-.8,1.34,1.34,0,0,0-.3-.33,1.49,1.49,0,0,0-.34-.28,2,2,0,0,0-.39-.2c-.14,0-.34-.11-.44-.12a2.38,2.38,0,0,0-.88.06,3.15,3.15,0,0,0-.8.4,3.88,3.88,0,0,0-.66.62l-.31.35-.08-.48a5.63,5.63,0,0,0-.2-1.16,5.36,5.36,0,0,0-.45-1.08,4.18,4.18,0,0,0-.69-.92,4.74,4.74,0,0,0-.89-.73,4.54,4.54,0,0,0-1.05-.44l-.3-.07-.11,0h-.15l-.56,0a2.09,2.09,0,0,0-.56.05,5,5,0,0,0-.56.11,5,5,0,0,0-1,.47c-.15.11-.32.2-.47.31l-.41.39a5,5,0,0,0-.7.88,9.05,9.05,0,0,0-.47,1l-.16.59-.07.26,0,.28a4.67,4.67,0,0,0,0,1.12,5.71,5.71,0,0,0,.23,1.09c.07.17.13.35.21.52l.27.49.32.45.37.4.26.28-.15.31a1.3,1.3,0,0,1-.21.23l-.07.06-.14.13-.29.29c-.19.19-.36.4-.53.6a9.35,9.35,0,0,0-.89,1.36,5.42,5.42,0,0,0-.35.73,4.4,4.4,0,0,0-.29.76,8.57,8.57,0,0,0-.38,1.59l-.08.81,0,.82a13.12,13.12,0,0,0,.14,1.65,12.08,12.08,0,0,0,.38,1.61c.17.56.34,1.07.5,1.64l.24.85a5.93,5.93,0,0,1,.14.86l.1.87a8.63,8.63,0,0,1,0,.88l0,.88-.19.83c-.12.56-.27,1.13-.4,1.67a15.43,15.43,0,0,0-.34,1.67c-.08.56-.2,1.12-.26,1.68C382.43,505,382.31,506.14,382.2,507.28Z" transform="translate(-19.14 -76.65)" fill="#e5c6a9"/><path d="M356.84,406.74s18-18.08,46.66-12.49l2.9,8.63S385.58,425.64,361,421Z" transform="translate(-19.14 -76.65)" fill="#fdb"/><path d="M405.88,382.3c-2.38-.19-2.34,3.1-2.34,3.1l-.66,3.46c-.63,3.28-4.78,4.35-4.85,8.25-.12,6.14,6.58,10.2,12.09,8.29a13.27,13.27,0,0,1,1.75-.85l4.31,2.37c1.35.83,1.84,0,1.84,0a1.63,1.63,0,0,0-.4-2.4l-3.19-2.12c-.16-.64.91-.56.91-.56l5.89-.34a1.61,1.61,0,0,0,1.39-2.12c-.08-1.79-2.32-1.28-2.32-1.28l-5.43.47a.56.56,0,0,1-.26-.89l7.11-3.74c1.84-1.07,1.25-2.28,1.25-2.28-1.06-2.12-3.52-.68-3.52-.68l-7.17,2.92c-.74.06-.22-.68-.22-.68L418,387c1.73-1.71.53-2.73.53-2.73-1.43-1.62-2.87.17-2.87.17-8.83,8-8.76,4.64-8.76,4.64l.8-3S408.7,382.53,405.88,382.3Z" transform="translate(-19.14 -76.65)" fill="#fdb"/><path d="M327.89,406.74s-18-18.08-46.66-12.49l-2.9,8.63s20.82,22.76,45.45,18.16Z" transform="translate(-19.14 -76.65)" fill="#fdb"/><path d="M278.85,382.3c2.38-.19,2.33,3.1,2.33,3.1l.67,3.46c.63,3.28,4.78,4.35,4.86,8.25.11,6.14-6.59,10.2-12.1,8.29a12.78,12.78,0,0,0-1.76-.85l-4.3,2.37c-1.35.83-1.84,0-1.84,0a1.63,1.63,0,0,1,.4-2.4l3.19-2.12c.16-.64-.91-.56-.91-.56l-5.89-.34a1.61,1.61,0,0,1-1.39-2.12c.08-1.79,2.32-1.28,2.32-1.28l5.43.47a.56.56,0,0,0,.26-.89L263,394c-1.84-1.07-1.25-2.28-1.25-2.28,1.06-2.12,3.52-.68,3.52-.68l7.17,2.92c.74.06.22-.68.22-.68L266.72,387c-1.73-1.71-.53-2.73-.53-2.73,1.43-1.62,2.87.17,2.87.17,8.83,8,8.76,4.64,8.76,4.64l-.8-3S276,382.53,278.85,382.3Z" transform="translate(-19.14 -76.65)" fill="#fdb"/><path d="M387.17,340.07c0,4.67-2.5,12.56.34,12.56s9.93-7.89,9.93-12.56-2.3-8.45-5.13-8.45-5.14,3.78-5.14,8.45" transform="translate(-19.14 -76.65)" fill="#e5c6aa"/><path d="M360.53,393.93h0c0,15.34-35.72,15.34-35.72,0h0C324.81,378.59,360.53,378.59,360.53,393.93Z" transform="translate(-19.14 -76.65)" fill="#e0ba9b" fill-rule="evenodd"/><path d="M298.6,340.56c0,4.94,2.09,13.3-.85,13.3s-9.8-8.36-9.8-13.3,2.38-8.94,5.32-8.94,5.33,4,5.33,8.94" transform="translate(-19.14 -76.65)" fill="#e5c6aa"/><path d="M341.94,401.64c-46.5,4.25-49.95-77.87-50-90.9-.27-60.67,102.66-58.78,102.67,1.75,0,0-3.78,89.62-52.67,89.15" transform="translate(-19.14 -76.65)" fill="#fdb"/><path d="M311.11,324.46l.48-.77a7.67,7.67,0,0,1,.58-.87c.23-.33.5-.71.82-1.1a13.88,13.88,0,0,1,1.05-1.24c.38-.45.86-.84,1.32-1.29A14.5,14.5,0,0,1,317,318a14,14,0,0,1,1.83-1l1-.42c.34-.13.68-.22,1-.34a6.38,6.38,0,0,1,1.05-.24,5.25,5.25,0,0,1,1-.11c.34,0,.68,0,1,0s.64.11,1,.18a8.86,8.86,0,0,1,1.65.56,10.86,10.86,0,0,1,1.26.72,5.73,5.73,0,0,1,.87.7,7.33,7.33,0,0,1,.68.69,5.86,5.86,0,0,1-1.07-.13c-.29,0-.62,0-1,0l-1.28-.07c-.46,0-.94-.06-1.44,0h-.77c-.26,0-.53,0-.8,0a7.51,7.51,0,0,0-.82,0,6.19,6.19,0,0,0-.85,0c-.28,0-.58.05-.87.1l-.87.21a11.94,11.94,0,0,0-1.68.66c-.55.24-1.07.56-1.58.84s-1,.64-1.4,1a14.24,14.24,0,0,0-1.21,1c-.74.63-1.3,1.2-1.71,1.62l-.63.65a.13.13,0,0,1-.18,0,.14.14,0,0,1,0-.16" transform="translate(-19.14 -76.65)" fill="#2e2c2c"/><path d="M378.45,326.55l-.47-.63c-.15-.21-.35-.42-.56-.68s-.5-.53-.77-.83-.63-.6-1-.9-.74-.61-1.17-.89-.87-.55-1.31-.83a12.47,12.47,0,0,0-1.43-.68,9,9,0,0,0-1.48-.46c-.5-.06-1-.2-1.44-.24l-.67-.14-.66-.11c-.42-.12-.83-.12-1.22-.2s-.76-.08-1.09-.13-.64-.05-.89-.08c-.51,0-.83-.1-.83-.1h0a.15.15,0,0,1-.12-.17.16.16,0,0,1,0-.07,5.08,5.08,0,0,1,.67-.55,3.89,3.89,0,0,1,.85-.5,7.89,7.89,0,0,1,1.21-.46,7.57,7.57,0,0,1,1.51-.24c.28,0,.56,0,.85,0s.57.08.87.12a7.56,7.56,0,0,1,1.73.6c.54.29,1.1.56,1.62.9a15.65,15.65,0,0,1,1.49,1,14.75,14.75,0,0,1,1.29,1.17,14.55,14.55,0,0,1,1.9,2.36c.22.38.45.71.61,1s.32.59.41.82l.29.73a.12.12,0,0,1-.07.17.14.14,0,0,1-.15,0" transform="translate(-19.14 -76.65)" fill="#2e2c2c"/><path d="M329.61,336.66c.36,4.83-2.63,9-6.68,9.29s-7.61-3.39-8-8.22,2.64-9,6.68-9.29,7.61,3.38,8,8.22" transform="translate(-19.14 -76.65)" fill="#2c2c2c"/><path d="M325.2,331.45a2.05,2.05,0,1,1-3.17.18,2.27,2.27,0,0,1,3.17-.18" transform="translate(-19.14 -76.65)" fill="#fff"/><path d="M328.8,369.13c-.06,6.49-.31,12,3.37,15.35,4.27,3.93,19,2.5,21.15-4.72.76-2.53-.07-6,1.83-6.31-11.44.31-22.55.33-26.35-4.32" transform="translate(-19.14 -76.65)" fill="#2c2c2c"/><path d="M340.34,361.66l7.36-1.5.53,2.09-1.85.45a5.13,5.13,0,0,1-2.58-.06Z" transform="translate(-19.14 -76.65)" fill="#e5c6aa"/><path d="M373.22,338.34c-.34,4.72-3.77,8.32-7.65,8s-6.75-4.34-6.4-9.07,3.77-8.33,7.65-8,6.75,4.34,6.4,9.07" transform="translate(-19.14 -76.65)" fill="#2c2c2c"/><path d="M369.75,332.65a2,2,0,1,1-3-.29,2.19,2.19,0,0,1,3,.29" transform="translate(-19.14 -76.65)" fill="#fff"/><path d="M350,360.42l-2.6-10.25.39,12,.42.09A1.5,1.5,0,0,0,350,360.42Z" transform="translate(-19.14 -76.65)" fill="#e5c6aa"/><path d="M394.64,312.62" transform="translate(-19.14 -76.65)" fill="#2e2c2c"/><path d="M348.72,384.78a7.88,7.88,0,0,0-7.64-5.29,7.8,7.8,0,0,0-7.87,5.82C336.75,387.36,343.89,387.22,348.72,384.78Z" transform="translate(-19.14 -76.65)" fill="#e45252"/><path d="M308.85,299c1.55,0,2-5.4,4-5.56s3,5.47,6.93,6.11a3.75,3.75,0,0,0,2.56-.35c2.07-1.2,1.61-4.38,2.69-4.61,1.36-.29,2.38,4.72,4.87,5s4.6-4.91,6.35-4.36c1.51.47,1.15,4.68,1.93,4.73s2.22-5.25,2.61-6.78c.59-2.31.62-3,1.16-3.2,1.78-.61,4.53,6.36,6.92,5.89s1.77-7.13,4.23-7.69c1.62-.37,2.31,2.48,6,4.51s4.9.34,10.69,2.16c4.32,1.36,5.86,3,7.2,2.13,1.93-1.26.07-5.55,1.84-6.64,2.19-1.34,6.4,4.31,8.9,3.1,2.07-1,2.82-6.67.51-10.51-2.88-4.8-10.61-6.88-12-9.77a7.61,7.61,0,0,0-1.81-2.43,5.49,5.49,0,0,0-1.26-.82c-1.73-.83-3.17-.61-4.62-1.81-.73-.61-1-1.15-1.79-1.27-.67-.09-1,.19-2.31.54a12.17,12.17,0,0,1-3.11.54c-1.77,0-2.74-1.34-3.79-1.71a37.6,37.6,0,0,0-9.81-1.93c-4-.32-14-1.11-24.67,2.35-3.56,1.16-3.92,2.43-8.54,4.08s-6.16,1.39-8.27,3c-1.61,1.24-1.23,1.79-4.38,5.79a39.36,39.36,0,0,1-2.91,3.42c-3.07,3.16-4.71,3.47-7.32,6.17-.24.25-3.91,4.28-3.07,5.42s4.86-2.45,9.28-1.06c3.36,1.05,4.73,4.29,6,3.71s.64-4.37,1.28-4.48C306,292.48,307.15,298.94,308.85,299Z" transform="translate(-19.14 -76.65)" fill="#6e4439"/><path d="M496.61,357.6c-7.51-.4-14.63,2.08-18.38,6.53,8.49.15,15.44-2.47,18.38-6.53Z" transform="translate(-19.14 -76.65)" fill="#508c56"/><path d="M478,355.44a27.42,27.42,0,0,0-20,2.93c7.71,1.55,15.36.32,20-2.93Z" transform="translate(-19.14 -76.65)" fill="#508c56"/><path d="M462.33,350.21c-5.14-2.7-12.68-3.15-19.65-1.09a27.24,27.24,0,0,0,19.65,1.09Z" transform="translate(-19.14 -76.65)" fill="#508c56"/><path d="M450.47,342.66c-3.44-3.3-10.14-4.93-17.48-4.15,4.27,3.57,11,5.07,17.48,4.15Z" transform="translate(-19.14 -76.65)" fill="#508c56"/><path d="M443.27,333.84c-1.52-3.56-6.83-6.17-13.86-6.68,2.12,4,7.56,6.45,13.86,6.68Z" transform="translate(-19.14 -76.65)" fill="#508c56"/><path d="M440.73,324.47c.08-3.49-3.7-6.62-10-8.11.31,3.94,4.27,7,10,8.11Z" transform="translate(-19.14 -76.65)" fill="#508c56"/><path d="M442.45,315.69c1.81-3.15-.08-6.63-5-9-1.67,3.61.42,7,5,9Z" transform="translate(-19.14 -76.65)" fill="#508c56"/><path d="M448.1,307.43c2.91-2.64,2.57-6.07-1-8.92-3,3.08-2.43,6.51,1,8.92Z" transform="translate(-19.14 -76.65)" fill="#508c56"/><path d="M456.34,300.88c3.7-2,4.75-5.21,2.6-8.29-3.92,2.4-4.8,5.62-2.6,8.29Z" transform="translate(-19.14 -76.65)" fill="#508c56"/><path d="M463.26,297.22c4.69.26,9.12-1.27,11.49-4-5.31-.12-9.65,1.5-11.49,4Z" transform="translate(-19.14 -76.65)" fill="#508c56"/><path d="M496.61,357.52c-7.46-.75-13.25-4.19-14.91-9.06,8.27,1.13,13.86,4.69,14.91,9.06Z" transform="translate(-19.14 -76.65)" fill="#508c56"/><path d="M478,355.44c-6.1-2.28-8.95-6.6-7.31-11.26,6.6,2.82,9.2,7.19,7.31,11.26Z" transform="translate(-19.14 -76.65)" fill="#508c56"/><path d="M462.33,350.21c-4.41-3.11-4.86-7.53-1.05-11.51,4.61,3.7,4.83,8.12,1.05,11.51Z" transform="translate(-19.14 -76.65)" fill="#508c56"/><path d="M450.47,342.66c-2.54-3.58-.85-7.68,4.58-10.68,2.42,4.12.47,8.19-4.58,10.68Z" transform="translate(-19.14 -76.65)" fill="#508c56"/><path d="M443.27,333.84c-.59-3.66,2.94-7.12,9.29-9,.23,4.16-3.5,7.55-9.29,9Z" transform="translate(-19.14 -76.65)" fill="#508c56"/><path d="M440.73,324.47c1.38-3.39,6.38-5.88,13.1-6.41-2,3.78-7.11,6.17-13.1,6.41Z" transform="translate(-19.14 -76.65)" fill="#508c56"/><path d="M442.45,315.69c2.18-3.09,7.48-5,13.89-4.88-2.79,3.36-8.21,5.16-13.89,4.88Z" transform="translate(-19.14 -76.65)" fill="#508c56"/><path d="M448.1,307.43c3.59-2.33,9.37-3,15-1.75a20.62,20.62,0,0,1-15,1.75Z" transform="translate(-19.14 -76.65)" fill="#508c56"/><path d="M456.34,300.88c3.9-1.9,9.43-2.11,14.4-.48a20.06,20.06,0,0,1-14.4.48Z" transform="translate(-19.14 -76.65)" fill="#508c56"/><path d="M496.61,357.52c-4.32.49-13.75.23-18.61-2.08,4.18.28,12.39,1.3,18.61,2.08Z" transform="translate(-19.14 -76.65)" fill="#508c56"/><path d="M478,355.44c-5-.46-12.45-2.09-15.67-5.23,3.78,1.09,10.28,3.28,15.67,5.23Z" transform="translate(-19.14 -76.65)" fill="#508c56"/><path d="M462.33,350.21c-4.49-1.37-10.5-4-11.86-7.55a101.45,101.45,0,0,1,11.86,7.55Z" transform="translate(-19.14 -76.65)" fill="#508c56"/><path d="M450.47,342.68c-3.58-2.13-7.85-5.2-7.28-8.84,2.82,2.08,5.19,5.39,7.28,8.84Z" transform="translate(-19.14 -76.65)" fill="#508c56"/><path d="M443.27,333.84c-2.37-2.62-4.46-5.57-2.54-9.37,1.64,2.48,2.26,5.73,2.54,9.37Z" transform="translate(-19.14 -76.65)" fill="#508c56"/><path d="M440.73,324.47c-1-2.9-1.58-5.91,1.72-8.78.43,2.63-.22,5.54-1.72,8.78Z" transform="translate(-19.14 -76.65)" fill="#508c56"/><path d="M442.45,315.69a10.1,10.1,0,0,1,5.65-8.26c-.54,2.73-2.77,5.34-5.65,8.26Z" transform="translate(-19.14 -76.65)" fill="#508c56"/><path d="M448.1,307.43c1.64-2.69,3.19-4.64,8.24-6.55-2,2.41-4.32,4.16-8.24,6.55Z" transform="translate(-19.14 -76.65)" fill="#508c56"/><path d="M456.34,300.88a12.23,12.23,0,0,1,6.92-3.66c-2.2,1.81-3.75,2.42-6.92,3.66Z" transform="translate(-19.14 -76.65)" fill="#508c56"/><path d="M500.16,357.6c7.51-.4,14.63,2.08,18.38,6.53-8.49.15-15.44-2.47-18.38-6.53Z" transform="translate(-19.14 -76.65)" fill="#508c56"/><path d="M518.77,355.44a27.42,27.42,0,0,1,20,2.93c-7.71,1.55-15.36.32-20-2.93Z" transform="translate(-19.14 -76.65)" fill="#508c56"/><path d="M534.44,350.21c5.14-2.7,12.68-3.15,19.65-1.09a27.24,27.24,0,0,1-19.65,1.09Z" transform="translate(-19.14 -76.65)" fill="#508c56"/><path d="M546.3,342.66c3.44-3.3,10.13-4.93,17.48-4.15-4.27,3.57-11,5.07-17.48,4.15Z" transform="translate(-19.14 -76.65)" fill="#508c56"/><path d="M553.5,333.84c1.52-3.56,6.83-6.17,13.86-6.68-2.12,4-7.57,6.45-13.86,6.68Z" transform="translate(-19.14 -76.65)" fill="#508c56"/><path d="M556,324.47c-.09-3.49,3.7-6.62,10-8.11-.31,3.94-4.27,7-10,8.11Z" transform="translate(-19.14 -76.65)" fill="#508c56"/><path d="M554.32,315.69c-1.81-3.15.08-6.63,5-9,1.67,3.61-.42,7-5,9Z" transform="translate(-19.14 -76.65)" fill="#508c56"/><path d="M548.67,307.43c-2.91-2.64-2.57-6.07,1-8.92,3,3.08,2.43,6.51-1,8.92Z" transform="translate(-19.14 -76.65)" fill="#508c56"/><path d="M540.43,300.88c-3.7-2-4.75-5.21-2.6-8.29,3.92,2.4,4.8,5.62,2.6,8.29Z" transform="translate(-19.14 -76.65)" fill="#508c56"/><path d="M533.51,297.22c-4.69.26-9.12-1.27-11.49-4,5.31-.12,9.65,1.5,11.49,4Z" transform="translate(-19.14 -76.65)" fill="#508c56"/><path d="M500.16,357.52c7.46-.75,13.25-4.19,14.91-9.06-8.27,1.13-13.86,4.69-14.91,9.06Z" transform="translate(-19.14 -76.65)" fill="#508c56"/><path d="M518.77,355.44c6.1-2.28,9-6.6,7.31-11.26-6.6,2.82-9.2,7.19-7.31,11.26Z" transform="translate(-19.14 -76.65)" fill="#508c56"/><path d="M534.44,350.21c4.4-3.11,4.86-7.53,1-11.51-4.6,3.7-4.82,8.12-1,11.51Z" transform="translate(-19.14 -76.65)" fill="#508c56"/><path d="M546.3,342.66c2.54-3.58.85-7.68-4.58-10.68-2.42,4.12-.48,8.19,4.58,10.68Z" transform="translate(-19.14 -76.65)" fill="#508c56"/><path d="M553.5,333.84c.59-3.66-2.94-7.12-9.29-9-.23,4.16,3.5,7.55,9.29,9Z" transform="translate(-19.14 -76.65)" fill="#508c56"/><path d="M556,324.47c-1.38-3.39-6.38-5.88-13.1-6.41,2,3.78,7.11,6.17,13.1,6.41Z" transform="translate(-19.14 -76.65)" fill="#508c56"/><path d="M554.32,315.69c-2.18-3.09-7.48-5-13.89-4.88,2.79,3.36,8.21,5.16,13.89,4.88Z" transform="translate(-19.14 -76.65)" fill="#508c56"/><path d="M548.67,307.43c-3.59-2.33-9.37-3-15-1.75a20.62,20.62,0,0,0,15,1.75Z" transform="translate(-19.14 -76.65)" fill="#508c56"/><path d="M540.43,300.88c-3.9-1.9-9.43-2.11-14.4-.48a20.06,20.06,0,0,0,14.4.48Z" transform="translate(-19.14 -76.65)" fill="#508c56"/><path d="M500.16,357.52c4.32.49,13.75.23,18.61-2.08-4.18.28-12.39,1.3-18.61,2.08Z" transform="translate(-19.14 -76.65)" fill="#508c56"/><path d="M518.77,355.44c5-.46,12.45-2.09,15.67-5.23-3.78,1.09-10.28,3.28-15.67,5.23Z" transform="translate(-19.14 -76.65)" fill="#508c56"/><path d="M534.44,350.21c4.49-1.37,10.5-4,11.86-7.55a101.45,101.45,0,0,0-11.86,7.55Z" transform="translate(-19.14 -76.65)" fill="#508c56"/><path d="M546.3,342.68c3.58-2.13,7.85-5.2,7.28-8.84-2.82,2.08-5.19,5.39-7.28,8.84Z" transform="translate(-19.14 -76.65)" fill="#508c56"/><path d="M553.5,333.84c2.37-2.62,4.46-5.57,2.54-9.37-1.64,2.48-2.26,5.73-2.54,9.37Z" transform="translate(-19.14 -76.65)" fill="#508c56"/><path d="M556,324.47c1-2.9,1.58-5.91-1.72-8.78-.43,2.63.22,5.54,1.72,8.78Z" transform="translate(-19.14 -76.65)" fill="#508c56"/><path d="M554.32,315.69a10.1,10.1,0,0,0-5.65-8.26c.54,2.73,2.77,5.34,5.65,8.26Z" transform="translate(-19.14 -76.65)" fill="#508c56"/><path d="M548.67,307.43c-1.64-2.69-3.19-4.64-8.24-6.55,2,2.41,4.32,4.16,8.24,6.55Z" transform="translate(-19.14 -76.65)" fill="#508c56"/><path d="M540.43,300.88a12.23,12.23,0,0,0-6.92-3.66c2.2,1.81,3.75,2.42,6.92,3.66Z" transform="translate(-19.14 -76.65)" fill="#508c56"/><path d="M450.46,373c9.59,1.36,17.05,2,19.25,2.14,13.46,1.08,14.62,1.13,16.78,1.07,6.45-.16,7.17-.88,14.31-1.07,6.57-.17,7.7.39,14.8.54a112.76,112.76,0,0,0,20.23-1.07,98.24,98.24,0,0,0,19.74-5.36c10.63-4,16-6.18,19.25-11.77.3-.53,4.92-8.75,2-15-2.2-4.64-6.32-3.41-9.38-8.57-3.18-5.37.1-8.75-3-13.91-2.05-3.46-5.64-5-12.83-8-8.16-3.46-9.16-2.12-11.84-4.81-3.62-3.65-2.73-7-7.4-11.78a24.53,24.53,0,0,0-5.92-4.28,40.23,40.23,0,0,0-15.3-4.81c-6.2-.79-21.82-2.77-38.49,5.88-5.86,3-10,5.18-13.33,10.17-4.22,6.31-2.74,10.51-7.4,15s-8.17,2.09-12.33,7c-2.9,3.39-5.2,9.2-3.46,13.38s6.41,3.61,7.06,6.83c.91,4.51-7.95,7.22-8.54,14.58-.43,5.41,3.91,9.66,4.44,10.16C441.51,371.49,444,372.05,450.46,373Z" transform="translate(-19.14 -76.65)" fill="#fafa76"/><path d="M535.47,473.74c-3.08-8.34-3.47-18.85-3.47-18.85-2.7-32.3-14.63-35.42-14.63-35.42-7.23-4.51-17.64-3.3-17.64-3.3s-10.41-1.21-17.63,3.3c0,0-11.94,3.12-14.64,35.42,0,0-.38,10.51-3.47,18.85-5.8,15.72-7.48,39,13,44.55a152.87,152.87,0,0,0,45.47,0C543,512.73,541.28,489.46,535.47,473.74Z" transform="translate(-19.14 -76.65)" fill="#fdb"/><path d="M463.13,476.23s37.93,7,73.27,0c0,0,6.5,7.58,2.91,19.95,0,0-24.23-.28-27.76,23.33a22.52,22.52,0,0,1-23.71,0s-2.6-20.88-27.39-20.94C460.45,498.57,456.48,486.35,463.13,476.23Z" transform="translate(-19.14 -76.65)" fill="#d66745"/><path d="M506.83,520.42c-5,.74-11.09.54-14.59-3.66-2.17-2.6-2.15-6-2.58-9.17-.53-4-2.44-7.82-6.37-9.51-4.73-2-12.06-2.15-14.06-8-1.53-4.47,1.4-9.15,4.75-11.93l.48-.38c-7-.78-11.33-1.58-11.33-1.58-6.65,10.12-2.68,22.34-2.68,22.34,24.79.06,27.39,20.94,27.39,20.94a22.52,22.52,0,0,0,23.71,0l0-.13A40.38,40.38,0,0,1,506.83,520.42Z" transform="translate(-19.14 -76.65)" fill="#d66745"/><path d="M536.4,476.23l-.86.17c-.25,3.24.86,6.6-.63,9.7-1.71,3.57-5.56,5.13-9,6.56a16.56,16.56,0,0,0-5.78,3.48,13.19,13.19,0,0,0-3.29,6.45,19.27,19.27,0,0,0-.39,4.55c8.16-11.11,22.86-11,22.86-11C542.9,483.81,536.4,476.23,536.4,476.23Z" transform="translate(-19.14 -76.65)" fill="#d66745"/><path d="M442.61,520c5.25-12.24,17.84-21.42,17.84-21.42,24.4.45,27.39,20.94,27.39,20.94s-10.17,9.83-20.19,8.29c0,0-7.95,10.1-18,4.62Z" transform="translate(-19.14 -76.65)" fill="#fdb"/><path d="M451.55,500a4.62,4.62,0,1,0,3.62-5.77A4.83,4.83,0,0,0,451.55,500Z" transform="translate(-19.14 -76.65)" fill="#fdb"/><path d="M446.84,502.09c.39,2.1,2,3.56,3.52,3.27s2.5-2.22,2.11-4.32-2-3.56-3.52-3.27S446.46,500,446.84,502.09Z" transform="translate(-19.14 -76.65)" fill="#fdb"/><path d="M442.14,504.62c.39,2.09,2,3.56,3.52,3.27s2.49-2.22,2.1-4.32-2-3.56-3.51-3.28S441.75,502.52,442.14,504.62Z" transform="translate(-19.14 -76.65)" fill="#fdb"/><path d="M437.79,507c.39,2.1,2,3.57,3.52,3.28s2.5-2.22,2.11-4.32-2-3.57-3.52-3.28S437.41,504.86,437.79,507Z" transform="translate(-19.14 -76.65)" fill="#fdb"/><path d="M434.52,510c.3,1.59,1.49,2.7,2.67,2.48s1.89-1.68,1.59-3.27-1.48-2.7-2.66-2.48S434.23,508.37,434.52,510Z" transform="translate(-19.14 -76.65)" fill="#fdb"/><path d="M440.41,529.45a20.86,20.86,0,0,0,4,7c2.22,2.44,5.6,4.06,8.89,3.39a10.65,10.65,0,0,0,8.8-11.77,45.42,45.42,0,0,0-1.1-7.39,9.37,9.37,0,0,1,.35-6.18c3-7.55-2.14-11.55-2.14-11.55l-5.39-3.37-17.3,9.14-.7,3.35a4,4,0,0,1,1.87,3A59.25,59.25,0,0,0,440.41,529.45Z" transform="translate(-19.14 -76.65)" fill="#fdb"/><path d="M457,504.14l-.63.11-.65,0-.64-.08-.63-.18-.61-.27-.56-.34-.52-.42-.46-.49.54-.16a4.73,4.73,0,0,1-.12.91,2.12,2.12,0,0,1-.12.45,4.22,4.22,0,0,1-.18.45l-.23.42-.3.38a3.92,3.92,0,0,1-.37.34,2.12,2.12,0,0,1-.43.28,2.5,2.5,0,0,1-.48.18l-.12,0h-.15l-.21,0a2.55,2.55,0,0,1-.55,0,2.8,2.8,0,0,1-.5-.12,3.19,3.19,0,0,1-.9-.46,4.51,4.51,0,0,1-.72-.66l.88-.34a6.16,6.16,0,0,1,0,1l-.07.48-.14.47a2.53,2.53,0,0,1-.19.45,2.34,2.34,0,0,1-.24.44l-.3.42-.38.36a2.23,2.23,0,0,1-.44.29,1.48,1.48,0,0,1-.5.21l-.26.08h-.29a2.22,2.22,0,0,1-.45,0c-.19,0-.39-.06-.58-.11a2.18,2.18,0,0,1-.49-.2,1.6,1.6,0,0,1-.44-.26l-.4-.31.88-.36a6.41,6.41,0,0,1-.16,1,2.74,2.74,0,0,1-.15.46,3.68,3.68,0,0,1-.21.45l-.26.43-.33.39a4.47,4.47,0,0,1-.4.34,3.3,3.3,0,0,1-.45.26,2.18,2.18,0,0,1-.51.17l-.12,0-.16,0h-.21a2.7,2.7,0,0,1-.56,0,2.75,2.75,0,0,1-.49-.14,3,3,0,0,1-.87-.5,4,4,0,0,1-.68-.69l.72-.33c0,.23,0,.35.05.53a3.58,3.58,0,0,1,0,.56,2.52,2.52,0,0,1-.09.56,3,3,0,0,1-.18.53,2.46,2.46,0,0,1-.28.5,1.69,1.69,0,0,1-.37.43,2.08,2.08,0,0,1-.48.34,2.53,2.53,0,0,1-.55.18,3.36,3.36,0,0,1-.55,0,2.3,2.3,0,0,1-.56-.18,2,2,0,0,1-.46-.29,2.23,2.23,0,0,1-.38-.37,2.61,2.61,0,0,1-.31-.43,2.47,2.47,0,0,1-.23-.46,4.58,4.58,0,0,1-.15-.49l-.1-.5.17.47c.06.16.15.3.22.45a3.62,3.62,0,0,0,.27.41,2.82,2.82,0,0,0,.33.36,1.76,1.76,0,0,0,.37.29,1.62,1.62,0,0,0,.42.2,2.07,2.07,0,0,0,.4.09,2.81,2.81,0,0,0,.46-.05,2.71,2.71,0,0,0,.39-.17,1.64,1.64,0,0,0,.32-.27,1.54,1.54,0,0,0,.25-.36,1.32,1.32,0,0,0,.18-.4,2.09,2.09,0,0,0,.11-.43,2.25,2.25,0,0,0,0-.44,2.2,2.2,0,0,0,0-.44,4.34,4.34,0,0,0-.07-.47l-.43-1.57,1.15,1.23a3.42,3.42,0,0,0,.57.51,2.22,2.22,0,0,0,.65.33,2.09,2.09,0,0,0,.34.08l.31,0,.22,0h.06l.08,0a1.17,1.17,0,0,0,.31-.12,1.75,1.75,0,0,0,.29-.18l.26-.23.22-.28.18-.32a2.07,2.07,0,0,0,.15-.34,2.15,2.15,0,0,0,.11-.36,3.77,3.77,0,0,0,.12-.76l.13-.91.76.55.29.22a1.05,1.05,0,0,0,.31.17c.1,0,.22.13.31.13l.27.07a2.87,2.87,0,0,0,.41,0h.14l.16-.05a.86.86,0,0,0,.3-.12,1.21,1.21,0,0,0,.28-.18l.25-.23.22-.29a2,2,0,0,0,.17-.32,1.37,1.37,0,0,0,.15-.35l.11-.36.07-.38a6.48,6.48,0,0,0,.06-.77l.11-1.24.77.9a3.26,3.26,0,0,0,.53.52,2.53,2.53,0,0,0,.62.35,2,2,0,0,0,.33.09,2.91,2.91,0,0,0,.32,0l.22,0h.06l.08,0a1.8,1.8,0,0,0,.33-.1,1.39,1.39,0,0,0,.31-.18,2,2,0,0,0,.28-.23l.25-.27.21-.33a2.85,2.85,0,0,0,.17-.35,1.47,1.47,0,0,0,.13-.37,4.18,4.18,0,0,0,.17-.78l.13-.68.41.52.37.47.43.42.47.38.53.3.57.24.59.15.62.07Z" transform="translate(-19.14 -76.65)" fill="#e5c6a9"/><path d="M455.8,507.34a1.41,1.41,0,0,0-.74-.44,3.33,3.33,0,0,0-1-.13,6.5,6.5,0,0,0-1.26.13,14.74,14.74,0,0,0-1.47.39q-.76.25-1.59.6l-.83.36-.84.4c-.57.25-1.12.57-1.69.86a15.28,15.28,0,0,0-1.63.93c-.51.34-1,.66-1.5,1a14,14,0,0,0-2.36,2.16,7.65,7.65,0,0,0-.73,1,5.31,5.31,0,0,0-.42.89,5.11,5.11,0,0,0-.18.63c0,.15-.05.23-.05.23s0-.08,0-.24a3.35,3.35,0,0,1,0-.67,4.23,4.23,0,0,1,.25-1,6.16,6.16,0,0,1,.61-1.24,14.63,14.63,0,0,1,5.49-4.71c.59-.28,1.16-.6,1.76-.85s1.18-.49,1.76-.7a15.52,15.52,0,0,1,1.72-.49,10.82,10.82,0,0,1,1.6-.23,6,6,0,0,1,1.38.08,3.41,3.41,0,0,1,1,.34,1.73,1.73,0,0,1,.52.44A.79.79,0,0,1,455.8,507.34Z" transform="translate(-19.14 -76.65)" fill="#e5c6a9"/><path d="M462,528.11c-.1-1.09-.22-2.18-.37-3.27-.06-.54-.17-1.08-.25-1.62a14.82,14.82,0,0,0-.33-1.61c-.13-.52-.27-1.07-.38-1.6l-.18-.81,0-.84c0-.28,0-.57,0-.85l.11-.83a5.86,5.86,0,0,1,.12-.84l.24-.81c.15-.55.31-1,.48-1.57a13,13,0,0,0,.37-1.56,14,14,0,0,0,.13-1.58l0-.79-.08-.79a8,8,0,0,0-.36-1.52,5.1,5.1,0,0,0-.28-.74,5,5,0,0,0-.34-.7,9.16,9.16,0,0,0-.85-1.31c-.17-.19-.33-.4-.52-.58l-.27-.27-.14-.13-.07-.06v0l.06,0a.32.32,0,0,0,.19,0l-.34-.84.36-.39.32-.43.25-.47c.08-.16.13-.33.2-.5a4.67,4.67,0,0,0,.22-1.05,4.88,4.88,0,0,0,0-1.08l0-.27-.07-.24-.16-.57a8.49,8.49,0,0,0-.45-1,4.94,4.94,0,0,0-.67-.84l-.4-.38c-.14-.11-.3-.19-.45-.29a4.39,4.39,0,0,0-1-.46,4.94,4.94,0,0,0-.53-.1,2,2,0,0,0-.54-.05l-.55,0h-.13l-.12,0-.28.08a3.68,3.68,0,0,0-1,.41,4.87,4.87,0,0,0-.86.7,4.51,4.51,0,0,0-.67.89,5.56,5.56,0,0,0-.43,1,5.25,5.25,0,0,0-.19,1.12l-.08.46-.3-.33a3.3,3.3,0,0,0-.64-.6,2.52,2.52,0,0,0-.77-.38,2,2,0,0,0-.84-.06,2.93,2.93,0,0,0-.42.11,1.7,1.7,0,0,0-.38.2,1.3,1.3,0,0,0-.33.26,1.47,1.47,0,0,0-.29.32,3.88,3.88,0,0,0-.43.77l-.14.43a3.11,3.11,0,0,0-.08.44,6.7,6.7,0,0,0-.05.9l0,.43-.28-.32a3.56,3.56,0,0,0-.6-.56,2.67,2.67,0,0,0-.71-.37,2.08,2.08,0,0,0-.78-.11l-.2,0h-.08l-.1,0a1.38,1.38,0,0,0-.39.14,2.23,2.23,0,0,0-.33.2c-.09.09-.2.17-.29.27l-.26.31-.2.35a2.54,2.54,0,0,0-.16.38,1.76,1.76,0,0,0-.12.39,4.4,4.4,0,0,0-.12.81l-.05.39-.33-.24-.37-.27a1.77,1.77,0,0,0-.41-.21,1.17,1.17,0,0,0-.44-.13.93.93,0,0,0-.44,0H440l-.12,0a1.84,1.84,0,0,0-.45.18l-.34.24-.3.33a2.59,2.59,0,0,0-.25.39,1.4,1.4,0,0,0-.19.41,2.35,2.35,0,0,0-.14.45l-.09.45a3.77,3.77,0,0,0,0,.47,1.84,1.84,0,0,0,0,.47l.06.47a3.06,3.06,0,0,0,.1.47l.19.91-.78-.59c-.12-.1-.24-.21-.37-.3a2.6,2.6,0,0,0-.42-.19,1.08,1.08,0,0,0-.43-.05h-.22a1,1,0,0,1-.21.08c-.21.05-.25.16-.37.21s-.21.22-.3.33a3.29,3.29,0,0,0-.21.42,1.76,1.76,0,0,0-.14.46,2,2,0,0,0-.06.48,2.09,2.09,0,0,0,0,.5l0,.24v.11l0,.13a2.75,2.75,0,0,0,.15.48,2.51,2.51,0,0,0,1.2,1.37l0,0,0,0a4,4,0,0,1,1.23,1.39,5.61,5.61,0,0,1,.54,1.74l.36,3.23.48,3.2c.15,1.06.43,2.1.64,3.16a30.31,30.31,0,0,0,.83,3.11l.44,1.52.61,1.51a13.53,13.53,0,0,0,.67,1.44l.35.71c.12.23.27.45.41.67a10.75,10.75,0,0,0,.87,1.32l1,1.21a15,15,0,0,0,1.15,1.12l.59.48.65.43a10.55,10.55,0,0,0,1.36.74c.24.11.49.18.73.27a3.46,3.46,0,0,0,.74.22l.76.16c.26.05.51,0,.77.07a8,8,0,0,0,1.55-.06,12.32,12.32,0,0,0,3-.91,10.6,10.6,0,0,0,2.65-1.75,9.27,9.27,0,0,0,2-2.51,10.55,10.55,0,0,0,1.08-3A13.43,13.43,0,0,0,462,528.11Zm.11,0a13.77,13.77,0,0,1-.13,3.27,10.76,10.76,0,0,1-1,3.11,10,10,0,0,1-1.92,2.68,11.27,11.27,0,0,1-2.68,2,13.1,13.1,0,0,1-3.14,1.13,10,10,0,0,1-2.56.13l-.84-.14A4.61,4.61,0,0,1,449,540c-.27-.09-.54-.16-.81-.27a10.84,10.84,0,0,1-1.52-.77l-.72-.44-.69-.54a4.3,4.3,0,0,1-.64-.55l-.59-.56L443,535.55a12.94,12.94,0,0,1-.93-1.39c-.15-.24-.31-.47-.44-.72l-.38-.75c-.24-.5-.53-1-.71-1.51l-.61-1.51-.49-1.61a27.32,27.32,0,0,1-.86-3.19c-.2-1.08-.47-2.15-.61-3.24l-.44-3.26-.32-3.26a4.34,4.34,0,0,0-.41-1.36,3.37,3.37,0,0,0-.88-1.06l.06,0a3.42,3.42,0,0,1-1.63-1.93,3.31,3.31,0,0,1-.17-.58l0-.14c0-.09,0-.11,0-.17l0-.31a3.22,3.22,0,0,1,0-.62,3.31,3.31,0,0,1,.09-.62,3.16,3.16,0,0,1,.2-.59,3.86,3.86,0,0,1,.32-.56,3.54,3.54,0,0,1,.47-.48,2.22,2.22,0,0,1,.6-.32l.32-.09.34,0a2.08,2.08,0,0,1,.66.11,3.23,3.23,0,0,1,.59.29,6.12,6.12,0,0,1,.48.41l-.59.32c0-.18-.07-.31-.09-.52l-.05-.53a2.44,2.44,0,0,1,0-.54,4.53,4.53,0,0,1,.05-.53l.11-.53a3.09,3.09,0,0,1,.18-.51,1.86,1.86,0,0,1,.24-.49,3.58,3.58,0,0,1,.31-.45l.39-.4c.16-.11.33-.21.5-.31a2.67,2.67,0,0,1,.49-.18l.12,0h.45a1.46,1.46,0,0,1,.55.06,1.87,1.87,0,0,1,.52.17,2.45,2.45,0,0,1,.48.26l.42.33-.37.15a5.38,5.38,0,0,1,.17-.89,2.39,2.39,0,0,1,.14-.43c.06-.14.11-.28.18-.41l.24-.4.29-.35c.11-.11.24-.21.36-.31a2.33,2.33,0,0,1,.41-.24,1.94,1.94,0,0,1,.42-.15l.1,0,.08,0h0l.24,0a2.4,2.4,0,0,1,.92.14,2.94,2.94,0,0,1,.8.43,3.94,3.94,0,0,1,.66.63l-.3.11a5.16,5.16,0,0,1,.06-1,3.55,3.55,0,0,1,.09-.47l.14-.47a3.76,3.76,0,0,1,.46-.86,2.24,2.24,0,0,1,.32-.37,2.08,2.08,0,0,1,.4-.32,2.13,2.13,0,0,1,.45-.23,3.35,3.35,0,0,1,.47-.14,2.64,2.64,0,0,1,1,.06,3.22,3.22,0,0,1,.9.42,4.58,4.58,0,0,1,.73.66l-.38.13a7.09,7.09,0,0,1,.19-1.21,5,5,0,0,1,.42-1.17,5.48,5.48,0,0,1,.71-1,5.32,5.32,0,0,1,.94-.83,4.92,4.92,0,0,1,1.15-.53l.28-.09.18,0,.16,0,.63-.06a2.28,2.28,0,0,1,.64,0,3.31,3.31,0,0,1,.63.1,4.9,4.9,0,0,1,1.18.49c.18.11.37.21.55.33l.48.42a5.91,5.91,0,0,1,.83,1,7.55,7.55,0,0,1,.59,1.17l.16.57.09.33,0,.31a5.57,5.57,0,0,1,0,1.29,6.85,6.85,0,0,1-.25,1.26c-.08.2-.15.4-.24.6l-.3.57-.38.54-.44.48-.33-.83a.78.78,0,0,1,.27.09l.1.07,0,0,.09.07.16.15c.11.1.21.21.31.31s.38.45.56.67a10.13,10.13,0,0,1,.91,1.46,6.2,6.2,0,0,1,.36.79,7.06,7.06,0,0,1,.29.81,9.84,9.84,0,0,1,.35,1.68l.08.86c0,.28,0,.57,0,.85a13.46,13.46,0,0,1-.22,1.69,16.23,16.23,0,0,1-.47,1.63c-.19.5-.4,1-.57,1.54l-.26.76a6.91,6.91,0,0,0-.16.79l-.13.79c0,.27,0,.53,0,.8v.8l.14.81c.1.54.19,1.06.32,1.61a15.07,15.07,0,0,1,.3,1.63c.07.54.17,1.08.22,1.63C462,525.91,462.06,527,462.14,528.1Z" transform="translate(-19.14 -76.65)" fill="#e5c6a9"/><path d="M557.86,519.29C552.6,507.06,540,497.88,540,497.88c-24.4.44-27.39,20.93-27.39,20.93s10.17,9.83,20.19,8.29c0,0,8,10.1,18,4.62Z" transform="translate(-19.14 -76.65)" fill="#fdb"/><path d="M548.91,499.35a4.63,4.63,0,1,1-3.61-5.78A4.82,4.82,0,0,1,548.91,499.35Z" transform="translate(-19.14 -76.65)" fill="#fdb"/><path d="M553.62,501.39c-.39,2.1-2,3.57-3.52,3.28s-2.5-2.22-2.11-4.32,2-3.57,3.52-3.28S554,499.29,553.62,501.39Z" transform="translate(-19.14 -76.65)" fill="#fdb"/><path d="M558.32,503.92c-.39,2.1-2,3.56-3.51,3.28s-2.5-2.23-2.11-4.32,2-3.57,3.52-3.28S558.71,501.82,558.32,503.92Z" transform="translate(-19.14 -76.65)" fill="#fdb"/><path d="M562.67,506.26c-.39,2.1-2,3.57-3.52,3.28s-2.49-2.22-2.1-4.32,2-3.57,3.51-3.28S563.06,504.17,562.67,506.26Z" transform="translate(-19.14 -76.65)" fill="#fdb"/><path d="M565.94,509.26c-.3,1.59-1.49,2.7-2.66,2.48s-1.9-1.68-1.6-3.27,1.49-2.7,2.66-2.48S566.23,507.67,565.94,509.26Z" transform="translate(-19.14 -76.65)" fill="#fdb"/><path d="M560.06,528.75a21,21,0,0,1-4,7c-2.22,2.44-5.59,4.06-8.89,3.39a10.65,10.65,0,0,1-8.79-11.77,45.57,45.57,0,0,1,1.09-7.39,9.28,9.28,0,0,0-.35-6.17c-3-7.55,2.14-11.56,2.14-11.56l5.39-3.37L564,508.07l.69,3.34a3.89,3.89,0,0,0-1.86,3A59.74,59.74,0,0,1,560.06,528.75Z" transform="translate(-19.14 -76.65)" fill="#fdb"/><path d="M543.47,503.44l.63,0,.62-.07.6-.15.56-.24.53-.3.48-.38.42-.42.37-.47.41-.52.13.68a5.16,5.16,0,0,0,.17.78,2.43,2.43,0,0,0,.13.38,3.65,3.65,0,0,0,.18.34l.2.33.25.28c.09.09.19.15.28.23a1.87,1.87,0,0,0,.31.17,1,1,0,0,0,.33.1l.08,0h.28a2.91,2.91,0,0,0,.32,0,2,2,0,0,0,.33-.09,2.8,2.8,0,0,0,.63-.35,4.33,4.33,0,0,0,.53-.52l.76-.9.12,1.24a5.11,5.11,0,0,0,0,.78l.07.38.11.36a1.47,1.47,0,0,0,.15.34,1.65,1.65,0,0,0,.18.32l.21.29.25.23a1.21,1.21,0,0,0,.28.18.85.85,0,0,0,.31.13l.15.05h0c.07,0-.08,0-.07,0H555a3,3,0,0,0,.42,0l.27-.07c.09,0,.2-.09.3-.12a1.2,1.2,0,0,0,.31-.18l.29-.21.76-.56.13.91a6,6,0,0,0,.12.76,1.52,1.52,0,0,0,.12.36,3.45,3.45,0,0,0,.14.34l.18.32.23.28c.08.09.17.15.25.23a2.29,2.29,0,0,0,.29.18.91.91,0,0,0,.31.12l.08,0h.07l.21,0,.31,0a1.3,1.3,0,0,0,.34-.08,2.07,2.07,0,0,0,.65-.32,3.46,3.46,0,0,0,.57-.51l1.41-1.52-.69,1.88h0s0,0,0,0h0v.19l0,.25a3.34,3.34,0,0,0,0,.44,1.65,1.65,0,0,0,0,.44,1.58,1.58,0,0,0,.1.43,1.89,1.89,0,0,0,.18.41,1.28,1.28,0,0,0,.26.35,1.39,1.39,0,0,0,.32.27,2.22,2.22,0,0,0,.38.18c.09,0,.33,0,.46,0a2.17,2.17,0,0,0,.41-.09,1.73,1.73,0,0,0,.41-.2A2.12,2.12,0,0,0,565,511a2.22,2.22,0,0,0,.32-.36,2.9,2.9,0,0,0,.27-.41,4.51,4.51,0,0,0,.22-.44l.17-.48-.09.5a4.66,4.66,0,0,1-.16.49,2,2,0,0,1-.23.46,2.08,2.08,0,0,1-.3.43,2.21,2.21,0,0,1-.38.37,2.51,2.51,0,0,1-.47.3,2.29,2.29,0,0,1-.56.17,2.52,2.52,0,0,1-.55,0,2.09,2.09,0,0,1-.55-.18,2,2,0,0,1-.48-.33,1.92,1.92,0,0,1-.37-.44,2,2,0,0,1-.27-.49,2.21,2.21,0,0,1-.18-.53,2.13,2.13,0,0,1-.1-.56,2.75,2.75,0,0,1,0-.57l0-.25v-.19h0v-.1l.72.36a4.91,4.91,0,0,1-.68.69,3.21,3.21,0,0,1-.87.49,2.85,2.85,0,0,1-.5.14,3.6,3.6,0,0,1-.56,0l-.21,0-.15,0-.13,0a1.74,1.74,0,0,1-.5-.17,2.28,2.28,0,0,1-.46-.26,4.23,4.23,0,0,1-.4-.34l-.33-.39-.26-.42a3.05,3.05,0,0,1-.2-.46,2.47,2.47,0,0,1-.15-.46,5.22,5.22,0,0,1-.17-1l.89.36-.4.31a2,2,0,0,1-.44.26,2.48,2.48,0,0,1-.5.2,3.71,3.71,0,0,1-.58.11,2.24,2.24,0,0,1-.45,0h-.29l-.26-.08a1.81,1.81,0,0,1-.5-.2,3.41,3.41,0,0,1-.44-.3l-.38-.36-.3-.41a3.18,3.18,0,0,1-.24-.44,2.58,2.58,0,0,1-.18-.46l-.14-.47-.08-.48a6.16,6.16,0,0,1,0-1l.88.35a4.51,4.51,0,0,1-.72.66,3.16,3.16,0,0,1-.9.45,2,2,0,0,1-.5.12,2.46,2.46,0,0,1-.54,0l-.22,0H550l-.12,0a2,2,0,0,1-.48-.19,2.44,2.44,0,0,1-.43-.28,2.9,2.9,0,0,1-.36-.34l-.31-.38-.23-.42a4.07,4.07,0,0,1-.18-.44,2.5,2.5,0,0,1-.12-.45,6,6,0,0,1-.12-.92l.54.16-.46.49-.52.42-.56.35-.61.26-.63.18-.64.09-.65,0Z" transform="translate(-19.14 -76.65)" fill="#e5c6a9"/><path d="M544.67,506.64a.58.58,0,0,1,.12-.2,1.8,1.8,0,0,1,.53-.43,3,3,0,0,1,1-.35,6,6,0,0,1,1.37-.08,10.82,10.82,0,0,1,1.6.23,14.93,14.93,0,0,1,1.72.49c.58.21,1.18.43,1.77.7s1.17.57,1.76.85a14.61,14.61,0,0,1,5.48,4.72,6.1,6.1,0,0,1,.61,1.23,4.78,4.78,0,0,1,.26,1,4.07,4.07,0,0,1,0,.67v.23l-.06-.23a6.23,6.23,0,0,0-.17-.62,5.5,5.5,0,0,0-.43-.9,7.14,7.14,0,0,0-.73-1,14.4,14.4,0,0,0-2.36-2.16c-.46-.36-1-.69-1.5-1a17.22,17.22,0,0,0-1.63-.93c-.57-.29-1.12-.6-1.69-.86l-.84-.4-.83-.35c-.54-.23-1.08-.44-1.59-.61s-1-.29-1.46-.39a7.59,7.59,0,0,0-1.26-.13,3.35,3.35,0,0,0-1,.13A1.35,1.35,0,0,0,544.67,506.64Z" transform="translate(-19.14 -76.65)" fill="#e5c6a9"/><path d="M561.06,527.36l-.48,1.61-.61,1.51c-.18.5-.47,1-.71,1.51l-.38.75c-.14.25-.3.48-.44.72a16.18,16.18,0,0,1-.93,1.4l-1.08,1.33-.59.57a5,5,0,0,1-.63.55l-.69.53-.73.45a12,12,0,0,1-1.52.76c-.26.11-.54.18-.81.27a4.61,4.61,0,0,1-.83.22l-.84.14a10,10,0,0,1-2.56-.13,12.68,12.68,0,0,1-3.14-1.13,11.19,11.19,0,0,1-2.68-2,10.19,10.19,0,0,1-1.92-2.68,10.76,10.76,0,0,1-1-3.11,13.77,13.77,0,0,1-.13-3.27c.09-1.09.19-2.18.32-3.28.05-.54.15-1.09.23-1.63a13,13,0,0,1,.3-1.63c.12-.54.22-1.07.31-1.61l.14-.81v-.8c0-.27,0-.53,0-.8l-.14-.79a5.53,5.53,0,0,0-.16-.79l-.26-.76c-.16-.49-.37-1-.56-1.54a13.43,13.43,0,0,1-.47-1.63,13.57,13.57,0,0,1-.23-1.68c0-.29,0-.57,0-.86l.07-.85a9.78,9.78,0,0,1,.36-1.69,6.48,6.48,0,0,1,.28-.81,5.51,5.51,0,0,1,.36-.78,9.77,9.77,0,0,1,.92-1.47c.18-.22.35-.45.55-.66s.2-.22.31-.32l.16-.15.09-.07c.06-.06,0,0,0,.09l.1.56-.44-.48-.37-.53-.31-.58a6.19,6.19,0,0,1-.23-.6,5.41,5.41,0,0,1-.25-1.26,5,5,0,0,1,0-1.28l0-.32.09-.33.17-.57a7.48,7.48,0,0,1,.58-1.17,6.44,6.44,0,0,1,.83-1l.49-.42c.17-.12.36-.22.54-.33a5.26,5.26,0,0,1,1.18-.49,4.72,4.72,0,0,1,.64-.1,2.67,2.67,0,0,1,.63,0l.64.06.16,0a.71.71,0,0,1,.17.05l.28.08a4.92,4.92,0,0,1,1.15.53,4.71,4.71,0,0,1,.94.84,4.78,4.78,0,0,1,.71,1,5.4,5.4,0,0,1,.43,1.16,7,7,0,0,1,.18,1.22l-.37-.13a3.83,3.83,0,0,1,.73-.66,2.88,2.88,0,0,1,.9-.43,2.59,2.59,0,0,1,1-.06c.21,0,.31.1.48.14a2.74,2.74,0,0,1,.45.23,2.08,2.08,0,0,1,.39.32,1.66,1.66,0,0,1,.32.38,4.16,4.16,0,0,1,.47.85l.14.47c0,.15,0,.32.09.47a6.32,6.32,0,0,1,.06,1l-.3-.12a4.23,4.23,0,0,1,.65-.62,3,3,0,0,1,.81-.44,2.55,2.55,0,0,1,.91-.14l.24,0h.06l.07,0,.1,0a1.77,1.77,0,0,1,.42.15,2.22,2.22,0,0,1,.42.25c.11.1.24.19.35.3l.3.36.23.39a3.12,3.12,0,0,1,.18.42,2,2,0,0,1,.15.43,6.63,6.63,0,0,1,.16.89l-.37-.15.42-.34a2.77,2.77,0,0,1,.48-.26,1.87,1.87,0,0,1,.52-.17,1.46,1.46,0,0,1,.55-.06h.46l.12,0a2.58,2.58,0,0,1,.48.18c.17.1.34.2.5.31l.39.4a3.28,3.28,0,0,1,.31.45,2,2,0,0,1,.24.49,3.09,3.09,0,0,1,.18.51l.12.53a3.08,3.08,0,0,1,0,.53,3.25,3.25,0,0,1,0,.54l-.06.53a3.74,3.74,0,0,1-.09.52l-.59-.32c.16-.14.31-.28.49-.41a2.86,2.86,0,0,1,.58-.29,1.86,1.86,0,0,1,.66-.1h.35l.31.09a2.58,2.58,0,0,1,.61.32,4.16,4.16,0,0,1,.46.48,3.5,3.5,0,0,1,.32.56,3.25,3.25,0,0,1,.2.6,3.11,3.11,0,0,1,.1.61,3.21,3.21,0,0,1,0,.62l0,.31a1.49,1.49,0,0,1,0,.17l0,.14a4.48,4.48,0,0,1-.17.58,3.41,3.41,0,0,1-1.64,1.93l.06,0a3.08,3.08,0,0,0-.87,1,4.53,4.53,0,0,0-.42,1.37l-.32,3.25-.44,3.26c-.14,1.09-.41,2.16-.61,3.24m-23.49,3.24a13.43,13.43,0,0,0,.19,3.23,10.74,10.74,0,0,0,1.08,3,9.47,9.47,0,0,0,2,2.51,10.6,10.6,0,0,0,2.65,1.75,12.39,12.39,0,0,0,3,.91,7.91,7.91,0,0,0,1.54.06c.26,0,.52,0,.77-.07l.76-.16a3.15,3.15,0,0,0,.74-.22c.24-.09.49-.16.73-.26a12.14,12.14,0,0,0,1.37-.75l.64-.43.59-.48a14.86,14.86,0,0,0,1.15-1.11l1-1.22a12,12,0,0,0,.86-1.32c.14-.22.29-.44.42-.67l.35-.71c.22-.48.48-.92.67-1.44l.6-1.51L560,527a27.9,27.9,0,0,0,.82-3.11c.21-1,.49-2.09.64-3.16l.48-3.2.36-3.24a5.33,5.33,0,0,1,.55-1.72,3.8,3.8,0,0,1,1.22-1.4l0,0,0,0a2.51,2.51,0,0,0,1.2-1.37,2.68,2.68,0,0,0,.16-.48l0-.13v-.1l0-.25a2,2,0,0,0,0-.49,2.63,2.63,0,0,0-.06-.49,2.44,2.44,0,0,0-.14-.46,2,2,0,0,0-.22-.41,2.41,2.41,0,0,0-.3-.33c-.12-.06-.15-.17-.37-.22l-.21-.07h-.21a1.32,1.32,0,0,0-.44,0,3.75,3.75,0,0,0-.41.19c-.13.09-.25.2-.38.3l-.77.59.18-.91a3.15,3.15,0,0,0,.11-.47l.06-.47a2.36,2.36,0,0,0,0-.46,3.59,3.59,0,0,0,0-.47l-.08-.46a2.07,2.07,0,0,0-.15-.44,1.23,1.23,0,0,0-.19-.42,2.55,2.55,0,0,0-.24-.39l-.31-.33-.34-.24a2.34,2.34,0,0,0-.45-.18l-.12,0h0c.06,0,0,0,0,0h-.28a.94.94,0,0,0-.44,0,1.26,1.26,0,0,0-.43.13,1.59,1.59,0,0,0-.41.21l-.38.27-.32.24-.05-.39a5.47,5.47,0,0,0-.13-.81,2.5,2.5,0,0,0-.11-.39c-.06-.13-.1-.26-.16-.38l-.21-.35-.25-.31a3.73,3.73,0,0,0-.3-.26,2.92,2.92,0,0,0-.32-.21,2,2,0,0,0-.39-.14l-.11,0h-.08l-.19,0a2.13,2.13,0,0,0-.79.11,2.57,2.57,0,0,0-.71.38,3.53,3.53,0,0,0-.6.56l-.28.31,0-.43a5.43,5.43,0,0,0,0-.9,3.39,3.39,0,0,0-.08-.44l-.14-.43a3.17,3.17,0,0,0-.43-.76,1.32,1.32,0,0,0-.29-.33,1.3,1.3,0,0,0-.33-.26c-.13-.06-.21-.16-.37-.19a2.38,2.38,0,0,0-.43-.12,2,2,0,0,0-.84.06,2.52,2.52,0,0,0-.77.38,3.62,3.62,0,0,0-.64.6l-.3.34-.07-.47a5.17,5.17,0,0,0-.2-1.11,5,5,0,0,0-.43-1.05,4.69,4.69,0,0,0-1.52-1.59,4.18,4.18,0,0,0-1-.41l-.29-.08-.11,0h-.14l-.54,0a2,2,0,0,0-.54.05,4.51,4.51,0,0,0-.53.1,4.26,4.26,0,0,0-1,.46l-.45.29-.39.38a4.7,4.7,0,0,0-.68.85,8.33,8.33,0,0,0-.45.95l-.16.57-.06.24,0,.27a4.34,4.34,0,0,0,0,1.08,4.67,4.67,0,0,0,.22,1c.07.17.13.34.2.5l.26.47.31.44.36.38.25.27-.15.3a1.19,1.19,0,0,1-.2.22l-.07.06-.14.13-.27.27c-.18.19-.34.39-.51.59a8.61,8.61,0,0,0-.86,1.3,5.79,5.79,0,0,0-.34.71,5,5,0,0,0-.28.73,9.73,9.73,0,0,0-.36,1.53l-.08.78v.79a11.88,11.88,0,0,0,.12,1.58,13,13,0,0,0,.37,1.56c.17.53.33,1,.48,1.57l.24.82a5.53,5.53,0,0,1,.13.83l.1.83c0,.28,0,.57,0,.85l0,.85-.18.8c-.12.54-.26,1.09-.39,1.61a14.15,14.15,0,0,0-.32,1.6c-.09.54-.2,1.08-.26,1.62C538.65,525.23,538.53,526.32,538.43,527.41Z" transform="translate(-19.14 -76.65)" fill="#e5c6a9"/><path d="M514,430.64a51.93,51.93,0,0,1,44.91-12l2.79,8.31s-20,21.91-43.75,17.48Z" transform="translate(-19.14 -76.65)" fill="#fdb"/><path d="M561.22,407.11c-2.29-.18-2.25,3-2.25,3l-.63,3.33c-.61,3.15-4.61,4.18-4.68,7.94-.11,5.9,6.34,9.81,11.64,8a12.36,12.36,0,0,1,1.69-.82l4.15,2.28c1.3.8,1.77,0,1.77,0a1.56,1.56,0,0,0-.39-2.31l-3.07-2c-.15-.62.88-.54.88-.54l5.66-.33a1.55,1.55,0,0,0,1.35-2c-.08-1.72-2.24-1.23-2.24-1.23l-5.23.45a.54.54,0,0,1-.24-.85l6.84-3.61c1.77-1,1.2-2.19,1.2-2.19-1-2-3.38-.66-3.38-.66l-6.91,2.81c-.71.06-.21-.65-.21-.65l5.73-6c1.67-1.64.51-2.63.51-2.63-1.38-1.55-2.77.17-2.77.17-8.5,7.72-8.43,4.47-8.43,4.47l.78-2.92S563.93,407.33,561.22,407.11Z" transform="translate(-19.14 -76.65)" fill="#fdb"/><path d="M486.15,430.64a51.93,51.93,0,0,0-44.91-12l-2.79,8.31s20,21.91,43.74,17.48Z" transform="translate(-19.14 -76.65)" fill="#fdb"/><path d="M438.94,407.11c2.3-.18,2.25,3,2.25,3l.64,3.33c.61,3.15,4.61,4.18,4.68,7.94.11,5.9-6.34,9.81-11.64,8a11.91,11.91,0,0,0-1.7-.82L429,430.81c-1.3.8-1.77,0-1.77,0a1.56,1.56,0,0,1,.39-2.31l3.07-2c.15-.62-.88-.54-.88-.54l-5.67-.33a1.55,1.55,0,0,1-1.34-2c.08-1.72,2.24-1.23,2.24-1.23l5.22.45a.53.53,0,0,0,.25-.85l-6.84-3.61c-1.77-1-1.21-2.19-1.21-2.19,1-2,3.39-.66,3.39-.66l6.91,2.81c.71.06.21-.65.21-.65l-5.73-6c-1.67-1.64-.51-2.63-.51-2.63,1.37-1.55,2.77.17,2.77.17,8.49,7.72,8.43,4.47,8.43,4.47l-.78-2.92S436.24,407.33,438.94,407.11Z" transform="translate(-19.14 -76.65)" fill="#fdb"/><path d="M543.22,366.46c0,4.49-2.41,12.1.32,12.1s9.56-7.61,9.56-12.1-2.21-8.13-4.94-8.13-4.94,3.64-4.94,8.13" transform="translate(-19.14 -76.65)" fill="#e5c6aa"/><path d="M517.57,418.31h0c0,14.76-34.38,14.76-34.38,0h0C483.19,403.54,517.57,403.54,517.57,418.31Z" transform="translate(-19.14 -76.65)" fill="#e0ba9b" fill-rule="evenodd"/><path d="M458,366.93c0,4.76,2,12.8-.81,12.8s-9.44-8-9.44-12.8,2.3-8.6,5.13-8.6,5.12,3.85,5.12,8.6" transform="translate(-19.14 -76.65)" fill="#e5c6aa"/><path d="M499.67,425.73c-44.75,4.09-48.07-75-48.13-87.5-.26-58.4,98.83-56.58,98.83,1.69,0,0-3.64,86.26-50.7,85.81" transform="translate(-19.14 -76.65)" fill="#fdb"/><path d="M470,351.43s.17-.26.46-.74a7.35,7.35,0,0,1,.55-.83c.23-.32.49-.69.79-1.06s.64-.79,1-1.2a16.64,16.64,0,0,1,1.27-1.23,13.18,13.18,0,0,1,1.54-1.16,13,13,0,0,1,1.76-1l1-.4c.32-.12.65-.21,1-.32a5.16,5.16,0,0,1,1-.23,4.34,4.34,0,0,1,1-.11c.33,0,.65,0,1,0s.62.11.91.18a7.6,7.6,0,0,1,1.59.54,8.55,8.55,0,0,1,1.22.7,5.11,5.11,0,0,1,.83.66,8.83,8.83,0,0,1,.66.67,5.38,5.38,0,0,1-1-.13c-.28,0-.6,0-1,0l-1.22-.06c-.45,0-.91-.07-1.4,0-.24,0-.49,0-.74,0s-.5,0-.76,0a7,7,0,0,0-.79,0,7.49,7.49,0,0,0-.82,0c-.27,0-.56.05-.84.1l-.83.2a11.37,11.37,0,0,0-1.62.64c-.54.23-1,.54-1.53.81s-.93.61-1.35.94-.81.63-1.16.94A22.47,22.47,0,0,0,470.8,351l-.61.63a.11.11,0,0,1-.17,0,.14.14,0,0,1,0-.16" transform="translate(-19.14 -76.65)" fill="#e3d61b"/><path d="M534.82,353.44l-.45-.6c-.14-.2-.34-.4-.54-.66s-.48-.5-.75-.8-.6-.57-1-.86-.72-.59-1.13-.86-.84-.52-1.27-.8a13.22,13.22,0,0,0-1.37-.65,7.73,7.73,0,0,0-1.42-.44c-.49-.06-.94-.19-1.39-.23l-.65-.14c-.21,0-.42-.06-.63-.11-.41-.11-.8-.11-1.18-.19s-.72-.07-1.05-.12-.61-.05-.85-.08c-.49,0-.8-.1-.8-.1h0a.13.13,0,0,1-.11-.16.1.1,0,0,1,0-.07,5.71,5.71,0,0,1,.64-.52,3.77,3.77,0,0,1,.81-.49,6.83,6.83,0,0,1,1.17-.44,7.08,7.08,0,0,1,1.46-.23h.81a6.07,6.07,0,0,1,.84.12,7.42,7.42,0,0,1,1.66.57c.53.28,1.07.54,1.56.86a15.21,15.21,0,0,1,1.44,1,13.54,13.54,0,0,1,1.24,1.13,14,14,0,0,1,1.83,2.27c.21.37.43.68.59,1s.3.57.39.79c.18.45.29.7.29.7a.14.14,0,0,1-.07.17.12.12,0,0,1-.15-.05" transform="translate(-19.14 -76.65)" fill="#e3d61b"/><path d="M487.81,363.18c.34,4.65-2.54,8.66-6.43,8.94s-7.33-3.26-7.67-7.91,2.54-8.66,6.44-8.95,7.32,3.26,7.66,7.92" transform="translate(-19.14 -76.65)" fill="#313161"/><path d="M483.56,358.16a2,2,0,1,1-3.05.17,2.19,2.19,0,0,1,3.05-.17" transform="translate(-19.14 -76.65)" fill="#fff"/><path d="M487,394.43c-.06,6.25-.3,11.51,3.24,14.78,4.11,3.78,18.26,2.41,20.36-4.54.73-2.44-.07-5.76,1.76-6.07-11,.29-21.7.31-25.36-4.17" transform="translate(-19.14 -76.65)" fill="#2c2c2c"/><path d="M498.14,387.24l7.08-1.44.51,2-1.78.43a4.85,4.85,0,0,1-2.48-.05Z" transform="translate(-19.14 -76.65)" fill="#e5c6aa"/><path d="M529.79,364.79c-.34,4.55-3.63,8-7.37,7.74s-6.49-4.18-6.16-8.73,3.63-8,7.36-7.74,6.5,4.18,6.17,8.73" transform="translate(-19.14 -76.65)" fill="#313161"/><path d="M526.44,359.32a1.89,1.89,0,1,1-2.59,2.64,1.89,1.89,0,1,1,2.59-2.64" transform="translate(-19.14 -76.65)" fill="#fff"/><path d="M507.41,386.05l-2.49-9.86.37,11.53.41.09A1.44,1.44,0,0,0,507.41,386.05Z" transform="translate(-19.14 -76.65)" fill="#e5c6aa"/><path d="M550.4,340" transform="translate(-19.14 -76.65)" fill="#2e2c2c"/><path d="M506.21,409.5a7.6,7.6,0,0,0-7.37-5.09,7.49,7.49,0,0,0-7.57,5.6C494.68,412,501.55,411.84,506.21,409.5Z" transform="translate(-19.14 -76.65)" fill="#e45252"/><path d="M467.82,326.88c1.5,0,1.94-5.2,3.87-5.35s2.9,5.26,6.67,5.88a3.64,3.64,0,0,0,2.45-.33c2-1.16,1.56-4.22,2.6-4.44,1.3-.28,2.29,4.53,4.68,4.81s4.44-4.73,6.12-4.2c1.45.45,1.1,4.51,1.85,4.55s2.14-5.05,2.52-6.52c.56-2.22.6-2.91,1.11-3.08,1.72-.59,4.37,6.12,6.66,5.67s1.71-6.87,4.07-7.4c1.57-.36,2.23,2.38,5.75,4.34s4.72.32,10.29,2.07c4.17,1.31,5.64,2.9,6.93,2.06,1.86-1.21.07-5.34,1.78-6.39,2.1-1.3,6.15,4.14,8.56,3,2-1,2.72-6.42.49-10.12-2.77-4.62-10.21-6.62-11.52-9.4a7.48,7.48,0,0,0-1.74-2.34,5.48,5.48,0,0,0-1.22-.8c-1.66-.79-3-.58-4.44-1.74-.7-.58-.93-1.1-1.73-1.21-.64-.1-1,.18-2.22.52a12.09,12.09,0,0,1-3,.51c-1.7,0-2.64-1.29-3.65-1.65a36.49,36.49,0,0,0-9.44-1.85c-3.83-.31-13.46-1.07-23.75,2.27-3.43,1.11-3.77,2.33-8.22,3.92s-5.93,1.34-8,2.89c-1.55,1.19-1.19,1.72-4.22,5.57a39.86,39.86,0,0,1-2.79,3.3c-3,3-4.54,3.33-7.05,5.93-.24.24-3.77,4.12-3,5.22s4.68-2.36,8.93-1c3.23,1,4.56,4.13,5.8,3.57s.62-4.21,1.23-4.31C465.09,320.65,466.19,326.87,467.82,326.88Z" transform="translate(-19.14 -76.65)" fill="#fafa76"/><path d="M141.4,213.71c-21.9,8.92-19.81,7.9-30.34,9.82" transform="translate(-19.14 -76.65)" fill="none" stroke="#a67c52" stroke-miterlimit="10"/><path d="M142.92,229.18l0,0c2.11,2.68,5.83,5.17,6,8.9.29,5.38-6.45,8.52-11,7.55a7.94,7.94,0,0,1-5.92-5.19c-.83-2.62.72-5.21,2-7.36s2.72-4.39.94-7.3c-.36-.58-1.29-.91-1.22-1.28,0-.21.57-.37.74-.5,1.44-1.1,3-1.25,4.69-1.78a3.13,3.13,0,0,1,2.53.05.75.75,0,0,1,.39.5,1.12,1.12,0,0,1-.19.6C140.92,225.43,141.59,227.48,142.92,229.18Z" transform="translate(-19.14 -76.65)" fill="#fafa76"/><path d="M143.53,209.57a7.44,7.44,0,0,0-6.64-4.28c-4.69.11-9.27,3.64-9.41,8.56-.09,3.24,2.84,7.23,6.24,7h0a24.38,24.38,0,0,1,7-2.09C143.23,216.2,145.3,213.42,143.53,209.57Z" transform="translate(-19.14 -76.65)" fill="none"/><path d="M133.72,220.88c-3.4.2-6.33-3.79-6.24-7,.14-4.92,4.72-8.45,9.41-8.56a7.44,7.44,0,0,1,6.64,4.28c1.77,3.85-.3,6.63-2.8,9.22a20.52,20.52,0,0,1,5.48,0,10.58,10.58,0,0,0,2.35-7.87,12.13,12.13,0,0,0-13.3-10.14c-6,.79-11.73,5.59-12.46,11.87-.58,4.93,1.88,9.62,6.15,11.08a27.1,27.1,0,0,1,4.77-2.85Z" transform="translate(-19.14 -76.65)" fill="#b8c5ff"/><path d="M140.73,218.79a20.52,20.52,0,0,1,5.48,0,9.3,9.3,0,0,0,1.07-1.6A17.9,17.9,0,0,0,143,216.1,18.5,18.5,0,0,1,140.73,218.79Z" transform="translate(-19.14 -76.65)" fill="#a3b4ff"/><path d="M129,223.73a27.1,27.1,0,0,1,4.77-2.85h0a5.31,5.31,0,0,1-4.09-1.85,27.08,27.08,0,0,0-3.91,2.68A8.54,8.54,0,0,0,129,223.73Z" transform="translate(-19.14 -76.65)" fill="#a3b4ff"/><path d="M130,206.77a8.77,8.77,0,0,0-1.64,3.66,10,10,0,0,1,8.52-5.14,7.44,7.44,0,0,1,6.64,4.28,6.42,6.42,0,0,1,.65,2.88l0-.13C145.8,202.68,134.74,202.1,130,206.77Z" transform="translate(-19.14 -76.65)" fill="#e0e6ff"/><path d="M129,205.36c5.28-3.78,12.56-3.74,17.29.21a12,12,0,0,0-11-4.79c-6,.79-11.73,5.59-12.46,11.87a11.88,11.88,0,0,0,.37,4.63A17.6,17.6,0,0,1,129,205.36Z" transform="translate(-19.14 -76.65)" fill="#a3b4ff"/><path d="M124.58,231.84a5.38,5.38,0,0,0,.83-.5c1-.74,1.92-1.81,2.89-2.61a22.37,22.37,0,0,1,11.56-5.31c4.65-.56,9.29.4,13.9,1a1.19,1.19,0,0,0,.82-2.13,18,18,0,0,0-8.37-3.46,20.52,20.52,0,0,0-5.48,0,24.38,24.38,0,0,0-7,2.09,27.1,27.1,0,0,0-4.77,2.85,26.34,26.34,0,0,0-5.92,6.1c-.32.46-.86,1.06-.86,1.65C122.18,232.74,124,232.13,124.58,231.84Z" transform="translate(-19.14 -76.65)" fill="#8495e0"/><path d="M138.1,242.11c1.15,1.55,3.89.72,5.19-.15a.93.93,0,0,0-.73-1.62,7,7,0,0,1-2,.16,4.52,4.52,0,0,0-2.1,0A1.08,1.08,0,0,0,138.1,242.11Z" transform="translate(-19.14 -76.65)" fill="#ffffb8"/><path d="M161.15,225.6l0,0c2.11,2.68,5.83,5.17,6,8.9.29,5.38-6.45,8.52-11,7.55a8,8,0,0,1-5.93-5.19c-.83-2.62.73-5.21,2.06-7.36s2.72-4.39.93-7.3c-.36-.58-1.29-.91-1.21-1.28,0-.21.57-.37.74-.5,1.44-1.1,3-1.25,4.69-1.78a3.13,3.13,0,0,1,2.53.05.77.77,0,0,1,.39.5,1.13,1.13,0,0,1-.2.6C159.14,221.85,159.82,223.9,161.15,225.6Z" transform="translate(-19.14 -76.65)" fill="#fafa76"/><path d="M161.76,206a7.44,7.44,0,0,0-6.64-4.28c-4.69.11-9.27,3.64-9.41,8.57-.09,3.23,2.84,7.23,6.23,7h0a24.38,24.38,0,0,1,7-2.09C161.46,212.62,163.53,209.84,161.76,206Z" transform="translate(-19.14 -76.65)" fill="none"/><path d="M151.94,217.3c-3.39.21-6.32-3.79-6.23-7,.14-4.93,4.72-8.46,9.41-8.57a7.44,7.44,0,0,1,6.64,4.28c1.77,3.85-.3,6.63-2.8,9.22a20.52,20.52,0,0,1,5.48,0,10.58,10.58,0,0,0,2.35-7.87,12.14,12.14,0,0,0-13.3-10.14c-6,.79-11.73,5.59-12.47,11.87-.57,4.93,1.89,9.62,6.16,11.08A27.1,27.1,0,0,1,152,217.3Z" transform="translate(-19.14 -76.65)" fill="#ff6969"/><path d="M159,215.21a20.52,20.52,0,0,1,5.48,0,10.28,10.28,0,0,0,1.07-1.59,17.48,17.48,0,0,0-4.32-1.1A19.17,19.17,0,0,1,159,215.21Z" transform="translate(-19.14 -76.65)" fill="#e45252"/><path d="M147.18,220.15A27.1,27.1,0,0,1,152,217.3h0a5.31,5.31,0,0,1-4.08-1.85,27.08,27.08,0,0,0-3.91,2.68A8.47,8.47,0,0,0,147.18,220.15Z" transform="translate(-19.14 -76.65)" fill="#e45252"/><path d="M148.24,203.19a8.65,8.65,0,0,0-1.64,3.66,10,10,0,0,1,8.52-5.14,7.44,7.44,0,0,1,6.64,4.28,6.56,6.56,0,0,1,.65,2.88l0-.12C164,199.1,153,198.52,148.24,203.19Z" transform="translate(-19.14 -76.65)" fill="#ff8282"/><path d="M147.23,201.79c5.28-3.79,12.55-3.75,17.29.2a12,12,0,0,0-11-4.79c-6,.79-11.73,5.59-12.47,11.87a12.15,12.15,0,0,0,.38,4.64A17.52,17.52,0,0,1,147.23,201.79Z" transform="translate(-19.14 -76.65)" fill="#e45252"/><path d="M142.81,228.26a5.9,5.9,0,0,0,.83-.5c1-.74,1.92-1.81,2.89-2.61a22.24,22.24,0,0,1,11.56-5.3c4.65-.57,9.29.39,13.89,1a1.19,1.19,0,0,0,.83-2.13,18.1,18.1,0,0,0-8.37-3.46,20.52,20.52,0,0,0-5.48,0,24.38,24.38,0,0,0-7,2.09,27.1,27.1,0,0,0-4.77,2.85,26.18,26.18,0,0,0-5.93,6.1c-.31.47-.85,1.06-.85,1.65C140.4,229.16,142.19,228.55,142.81,228.26Z" transform="translate(-19.14 -76.65)" fill="#c43d3d"/><path d="M156.33,238.54c1.14,1.54,3.88.71,5.18-.16a.92.92,0,0,0-.72-1.62,7,7,0,0,1-2,.16,4.52,4.52,0,0,0-2.1,0A1.08,1.08,0,0,0,156.33,238.54Z" transform="translate(-19.14 -76.65)" fill="#ffffb8"/><path d="M192.75,159.7c-4.07,9.12-26.24,45.43-46.82,52.31" transform="translate(-19.14 -76.65)" fill="none" stroke="#a67c52" stroke-miterlimit="10"/></svg>